<svg id="icon-brine" xmlns="http://www.w3.org/2000/svg" viewBox="0 0 105 32">
	<title>brine</title>
	<path d="M102.067 21.172c-0.523 0.001-0.966 0.403-0.966 0.948 0 0.552 0.443 0.951 0.966 0.951 0.515 0 0.958-0.399 0.96-0.951-0.002-0.546-0.445-0.947-0.96-0.948zM101.907 22.021v-0.255h0.184c0.111 0.004 0.194 0.019 0.194 0.121-0.001 0.132-0.080 0.13-0.219 0.135h-0.159zM102.273 22.211c0.139-0.033 0.253-0.134 0.25-0.317-0.002-0.228-0.153-0.335-0.409-0.335h-0.436v1.126h0.23v-0.458h0.127l0.278 0.458h0.207c-0.122 0.105-0.278 0.167-0.454 0.167-0.401 0-0.71-0.308-0.712-0.731 0.002-0.415 0.311-0.724 0.712-0.724 0.394 0 0.704 0.308 0.705 0.724 0 0.216-0.083 0.403-0.215 0.535l-0.284-0.444zM102.396 14.333l0.585-2.146h-15.258l1.133 1.462-2.449 9.386h13.738l0.544-2.147h-9.341l0.615-2.372h7.338l0.587-2.144h-7.347l0.516-2.038zM46.331 15.361l0.126-0.433c0.063-0.252 0.085-0.482 0.064-0.696-0.067-0.818-0.75-1.356-1.65-1.649-0.904-0.297-2.043-0.396-3.177-0.396h-10.040l1.083 1.421-2.463 9.427h9.024c2.551 0 5.489-0.497 6.048-2.654l0.199-0.773c0.057-0.218 0.080-0.439 0.060-0.651-0.053-0.704-0.597-1.313-1.625-1.619 1.261-0.368 2.1-1.026 2.35-1.977zM41.275 19.232l-0.271 1.028c-0.090 0.295-0.365 0.618-1.631 0.627h-4.156l0.615-2.372h4.262c0.491-0.001 0.806 0.064 0.971 0.144 0.162 0.085 0.212 0.167 0.233 0.321 0.006 0.069-0.002 0.156-0.023 0.252zM42.033 15.009l-0.146 0.604c-0.103 0.333-0.345 0.746-1.587 0.758h-3.888l0.513-2.038h3.929c0.554 0 0.883 0.062 1.045 0.132 0.159 0.074 0.171 0.125 0.19 0.219 0.008 0.090-0.022 0.207-0.057 0.325zM82.588 12.187l-1.669 6.341-4.411-6.341h-5.77l1.133 1.48-2.461 9.368h4.398l1.413-5.51 3.999 5.51h4.93l2.834-10.848zM64.113 12.187l1.085 1.427-2.461 9.421h4.396l2.837-10.848zM62.514 16.114l0.326-1.186c0.063-0.252 0.086-0.482 0.064-0.693-0.066-0.821-0.751-1.359-1.649-1.652-0.902-0.297-2.044-0.396-3.178-0.396h-10.379l1.088 1.429-2.462 9.419h4.396l1.066-4.1h1.91l2.939 4.1h5.101l-3.174-4.238c2.368-0.353 3.593-1.202 3.953-2.682zM58.414 15.010l-0.274 1.017c-0.16 0.632-0.609 0.746-1.92 0.761h-3.888l0.641-2.455h3.926c0.557 0 0.969 0.036 1.209 0.108 0.242 0.083 0.302 0.149 0.328 0.326 0.006 0.065 0 0.149-0.022 0.243zM22.289 21.511c-0.262 0-0.483 0.201-0.483 0.474 0 0.276 0.221 0.476 0.483 0.476 0.257 0 0.479-0.2 0.48-0.476-0.001-0.273-0.223-0.474-0.48-0.474zM22.208 21.936v-0.128h0.092c0.056 0.002 0.097 0.009 0.097 0.061-0 0.066-0.040 0.066-0.109 0.068h-0.079v-0.001h0zM22.391 22.031c0.069-0.016 0.127-0.067 0.125-0.158-0.001-0.114-0.076-0.167-0.205-0.168h-0.218v0.563h0.115v-0.229h0.064l0.139 0.229h0.103c-0.061 0.052-0.139 0.083-0.227 0.083-0.201 0-0.355-0.154-0.356-0.365 0.001-0.208 0.156-0.362 0.356-0.362 0.197 0 0.352 0.154 0.353 0.362 0 0.108-0.042 0.201-0.108 0.267l-0.142-0.222zM6.427 4.315c-0.001-0.765-0.621-1.384-1.383-1.385-0.766 0.001-1.384 0.62-1.385 1.385 0.001 0.764 0.619 1.382 1.385 1.383 0.762-0.002 1.382-0.62 1.383-1.383zM23.517 2.93c-0.765 0.001-1.383 0.62-1.384 1.385 0.001 0.764 0.62 1.382 1.384 1.383 0.766-0.001 1.382-0.619 1.384-1.383-0.001-0.765-0.618-1.384-1.384-1.385zM14.28 3.185c0.764-0.001 1.383-0.619 1.385-1.383-0.002-0.765-0.621-1.384-1.385-1.385-0.765 0.001-1.383 0.62-1.384 1.385 0.001 0.765 0.619 1.383 1.384 1.383zM23.118 6.346l-1.341-0.758c-0.597 1.013-1.691 1.696-2.95 1.704l-0.001 0.001h-0.024c-1.903-0.004-3.443-1.544-3.446-3.446v-0.016h-2.152l0.001 0.016c-0.002 1.902-1.543 3.442-3.447 3.446h-0.003c-1.27 0-2.376-0.688-2.974-1.706l-0.279 0.156-1.016 0.565-0.028-0.050 0.028 0.050-0.28 0.156 0.023 0.035c1 1.412 1.63 3.101 1.751 4.932h14.602c0.122-1.831 0.75-3.52 1.749-4.932l0.025-0.036-0.23-0.128-0.007 0.011zM20.754 8.413c-0.175 0.499-0.314 1.016-0.417 1.545l-0.010 0.046h-12.096l-0.009-0.046c-0.103-0.529-0.243-1.045-0.418-1.545l-0.043-0.121 0.118 0.049c0.579 0.242 1.212 0.376 1.877 0.377 2.002-0.002 3.72-1.208 4.471-2.934l0.052-0.121 0.052 0.121c0.75 1.726 2.468 2.932 4.469 2.934 0.665-0 1.299-0.135 1.877-0.376l0.118-0.050-0.042 0.122zM10.66 24.267v-1.644h-1.396v1.644c-0.004 1.912-1.551 3.457-3.461 3.461-0.068 0-0.134-0.002-0.2-0.006 0.414 0.49 0.884 0.905 1.38 1.259 2.113-0.53 3.677-2.439 3.677-4.714zM12.772 24.267l0.001-1.644h-1.397v1.644c0 1.542-0.623 2.931-1.632 3.941-0.555 0.555-1.223 0.991-1.968 1.272 0.547 0.306 1.11 0.549 1.656 0.739 2.003-1.224 3.34-3.433 3.34-5.952zM23.068 21.547v0.502c-0.001 0.429-0.35 0.779-0.779 0.779-0.431-0.001-0.779-0.349-0.779-0.779v-8.465h0.002l-0-1.397h-14.521l-2.206 8.452 2.359 0.003-0.001 3.596c-0.001 0.716-0.583 1.297-1.3 1.299-0.718-0.002-1.299-0.582-1.301-1.299v-0.28l-1.366-0.709v0.99c0 1.138 0.712 2.106 1.716 2.489 0.295 0.114 0.616 0.178 0.951 0.178 1.474-0.003 2.664-1.194 2.667-2.666v-2.361h3.218c0.541 0 0.979-0.438 0.981-0.98 0-0.227-0.077-0.437-0.208-0.603h-0.26c0.093 0.101 0.15 0.236 0.15 0.384 0 0.316-0.256 0.573-0.573 0.573-0.181 0-0.343-0.084-0.446-0.213-0.016-0.019-0.026-0.036-0.033-0.047-0.022-0.030-0.042-0.058-0.065-0.086-0.297-0.37-0.752-0.608-1.266-0.608-0.679 0-1.259 0.419-1.5 1.012l0.001-0.022v-0.644h0l0.002-1.396-1.921-0.002 1.459-5.587 0.113 0.012c0.017 0.753 0.39 1.418 0.959 1.833l0.055 0.040-0.048 0.048c-0.425 0.412-0.692 0.982-0.707 1.616h1.028c0.032-0.695 0.606-1.251 1.309-1.252l1.547-0.001v-1.029h-1.809c-0.713-0.002-1.293-0.573-1.308-1.284l-0.002-0.058h4.415l-0.001 8.463c0.001 3.422 1.979 6.381 4.855 7.796 0.491-0.243 0.995-0.535 1.496-0.89-1.073-0.362-2.032-0.968-2.819-1.752-1.319-1.322-2.134-3.139-2.134-5.154v-8.464h0.827v8.502c0 3.031 2.1 5.57 4.926 6.247 0.41-0.36 0.809-0.767 1.185-1.229-2.631-0.167-4.709-2.346-4.715-5.017v-8.502h0.739l-0.001 8.463c0.001 2.39 1.936 4.328 4.329 4.329 0.067 0 0.134-0.002 0.201-0.005 0.329-0.485 0.635-1.020 0.906-1.615-0.34 0.141-0.714 0.222-1.106 0.223-1.619-0.004-2.929-1.314-2.932-2.932v-8.464h0.755v8.464c0 1.202 0.974 2.176 2.176 2.177 1.202-0.001 2.175-0.974 2.176-2.176v-1.294l-1.396 0.792zM14.442 27.074c-0.42-0.662-0.758-1.38-1.003-2.14-0.057 0.654-0.194 1.281-0.402 1.877-0.049 0.137-0.101 0.273-0.158 0.405-0.548 1.315-1.454 2.444-2.593 3.268 0.667 0.18 1.277 0.288 1.758 0.351 0.669-0.638 1.244-1.375 1.694-2.191l0.041-0.076 0.054 0.069c0.622 0.804 1.357 1.52 2.177 2.122 0.486-0.13 1.062-0.312 1.683-0.566-0.717-0.414-1.375-0.917-1.957-1.499-0.488-0.489-0.921-1.033-1.294-1.619z"></path>
</svg>
