<svg viewBox="0 0 40 42" id="mastercard-icon" xmlns="http://www.w3.org/2000/svg"><g fill-rule="nonzero" fill="none"><path d="M38.549 7.694H1.45C.653 7.694 0 8.332 0 9.127v22.78c0 .795.653 1.434 1.451 1.434H38.55c.798 0 1.451-.638 1.451-1.433V9.127c0-.795-.653-1.433-1.451-1.433zm0 .9c.314 0 .562.242.562.533v22.78a.548.548 0 01-.562.534H1.45a.549.549 0 01-.562-.534V9.127c0-.291.248-.533.562-.533H38.55z" fill="#CCC"></path><path fill="#FF5F00" d="M17.367 13.069h6.239v11.5h-6.239z"></path><path d="M17.486 18.819a7.404 7.404 0 012.714-5.75 6.975 6.975 0 00-4.397-1.565c-3.942 0-7.13 3.272-7.13 7.315 0 4.043 3.188 7.314 7.13 7.314 1.663 0 3.188-.589 4.397-1.564-1.644-1.32-2.714-3.414-2.714-5.75z" fill="#EB001B"></path><path d="M32.3 18.819c0 4.043-3.189 7.314-7.13 7.314a6.975 6.975 0 01-4.397-1.564c1.664-1.341 2.713-3.414 2.713-5.75a7.404 7.404 0 00-2.713-5.75 6.975 6.975 0 014.397-1.565c3.941 0 7.13 3.292 7.13 7.315z" fill="#F79E1B"></path><path d="M12.871 29.831v-1.219c0-.467-.277-.772-.752-.772a.775.775 0 00-.674.346.689.689 0 00-.633-.346.634.634 0 00-.555.285v-.244h-.416v1.95h.416v-1.077c0-.345.178-.508.456-.508.277 0 .415.183.415.508v1.077h.416v-1.077c0-.345.198-.508.456-.508.277 0 .416.183.416.508v1.077h.455zm6.16-1.95h-.673v-.59h-.416v.59h-.377v.386h.377v.894c0 .447.178.71.653.71.179 0 .377-.06.515-.141l-.119-.366a.64.64 0 01-.356.102c-.198 0-.277-.122-.277-.326v-.873h.673v-.386zm3.525-.04a.556.556 0 00-.495.284v-.244h-.416v1.95h.416v-1.097c0-.325.139-.508.396-.508.08 0 .179.02.258.04l.119-.406c-.08-.02-.198-.02-.278-.02zm-5.327.202c-.198-.142-.476-.203-.773-.203-.475 0-.792.244-.792.63 0 .325.238.508.654.569l.198.02c.218.04.336.102.336.203 0 .143-.158.244-.435.244-.278 0-.496-.101-.634-.203l-.198.325c.218.163.515.244.812.244.554 0 .871-.264.871-.63 0-.345-.257-.528-.653-.59l-.198-.02c-.179-.02-.317-.06-.317-.182 0-.143.138-.224.356-.224a1.4 1.4 0 01.594.163l.179-.346zm11.051-.203a.556.556 0 00-.495.285v-.244h-.416v1.95h.416v-1.097c0-.325.139-.508.396-.508.08 0 .179.02.258.04l.119-.406c-.08-.02-.198-.02-.278-.02zm-5.308 1.016c0 .59.396 1.016 1.01 1.016.278 0 .476-.061.674-.224l-.198-.345a.788.788 0 01-.495.183c-.337 0-.575-.244-.575-.63 0-.366.238-.61.575-.63.178 0 .336.061.495.183l.198-.345c-.198-.163-.396-.224-.674-.224-.614 0-1.01.427-1.01 1.016zm3.843 0v-.975h-.416v.244a.709.709 0 00-.594-.285c-.535 0-.951.427-.951 1.016 0 .59.416 1.016.95 1.016.278 0 .476-.102.595-.285v.244h.416v-.975zm-1.525 0c0-.345.218-.63.574-.63.337 0 .574.264.574.63 0 .345-.237.63-.574.63-.356-.02-.574-.285-.574-.63zm-4.972-1.016c-.554 0-.95.406-.95 1.016s.396 1.016.97 1.016c.277 0 .555-.081.773-.264l-.198-.305a.932.932 0 01-.555.203c-.257 0-.515-.122-.574-.467h1.406v-.163c.02-.63-.337-1.036-.872-1.036zm0 .366c.258 0 .436.162.476.467h-.99c.039-.264.217-.467.514-.467zm10.32.65v-1.747h-.417v1.016a.709.709 0 00-.594-.285c-.535 0-.95.427-.95 1.016 0 .59.415 1.016.95 1.016.277 0 .475-.102.594-.285v.244h.416v-.975zm-1.526 0c0-.345.218-.63.575-.63.336 0 .574.264.574.63 0 .345-.238.63-.574.63-.357-.02-.575-.285-.575-.63zm-13.904 0v-.975h-.415v.244a.709.709 0 00-.595-.285c-.534 0-.95.427-.95 1.016 0 .59.416 1.016.95 1.016.278 0 .476-.102.595-.285v.244h.415v-.975zm-1.544 0c0-.345.217-.63.574-.63.337 0 .574.264.574.63 0 .345-.237.63-.574.63-.357-.02-.574-.285-.574-.63z" fill="#000"></path></g></svg>