<svg viewBox="0 0 36 38" id="bottom-icon" xmlns="http://www.w3.org/2000/svg"><path d="M20.559 36.3L18.58 19.804a.582.582 0 00-.581-.507.581.581 0 00-.581.507l-1.98 16.52c-6.881 1.373-12.67-.366-14.22-.906L4.759 5.02c1.653.515 6.014 1.692 12.06 1.956l2.28-.001c6.131-.268 10.535-1.482 12.119-1.982L34.78 35.41c-5.661 1.905-12.47 1.135-14.221.89zM5.794 1.328c1.474.504 5.524 1.713 11.17 1.982h2.1c5.612-.268 9.653-1.473 11.133-1.98l.825 2.514c-1.345.43-5.802 1.712-11.949 1.981h-2.228C10.75 5.56 6.324 4.306 4.92 3.86l.874-2.532zm20.737-.179a43.5 43.5 0 01-7.495 1.011l-2.043.001a43.713 43.713 0 01-7.52-1.012h17.058zm5.742 2.794a.561.561 0 00-.024-.11L31.121.397A.584.584 0 0030.564 0H5.436a.586.586 0 00-.555.39L3.754 3.658a.541.541 0 00-.028.119L.004 35.733a.573.573 0 00.355.595c.216.09 4.137 1.672 9.71 1.672 1.852 0 3.887-.175 6.027-.637a.577.577 0 00.456-.494L18 24.789l1.448 12.08c.03.252.225.454.48.498.355.062 8.794 1.489 15.69-1.03a.574.574 0 00.378-.604l-3.723-31.79z" fill="#000" fill-rule="evenodd"></path></svg>