<svg viewBox="0 0 26 28" id="ar-red-icon" xmlns="http://www.w3.org/2000/svg"><path d="M24.882 5.907a.726.726 0 01.41.67v5.09a.73.73 0 01-1.459 0V7.742l-3.32 1.66a.73.73 0 11-.652-1.304l3.071-1.536-3.07-1.535a.73.73 0 01.652-1.304l4.368 2.184zm.41 15.224a.725.725 0 01-.41.67l-4.368 2.185a.73.73 0 01-.653-1.305l3.071-1.535-3.07-1.535a.73.73 0 01.652-1.305l3.32 1.66v-3.924a.73.73 0 111.458 0v5.09zm-22.432.015l3.07 1.535a.73.73 0 01-.652 1.305L.91 21.8a.726.726 0 01-.41-.67v-5.09a.73.73 0 111.458 0v3.925l3.32-1.66a.73.73 0 01.652 1.305l-3.07 1.535zM1.958 7.742v3.925a.73.73 0 01-1.458 0v-5.09a.725.725 0 01.41-.67l4.368-2.184a.73.73 0 01.652 1.304L2.86 6.562l3.07 1.536a.73.73 0 01-.652 1.304l-3.32-1.66zM12.557.084a.726.726 0 01.678 0l4.362 2.18a.73.73 0 01-.652 1.305l-3.32-1.66v3.924a.73.73 0 11-1.458 0V1.91l-3.32 1.66a.73.73 0 01-.652-1.305l4.362-2.18zm.678 27.54a.726.726 0 01-.678 0l-4.362-2.18a.73.73 0 01.652-1.305l3.32 1.66v-3.924a.73.73 0 111.458 0v3.924l3.32-1.66a.73.73 0 01.652 1.305l-4.362 2.18zm.39-14.778v3.925a.73.73 0 11-1.458 0v-3.925l-3.972-1.985a.73.73 0 11.652-1.305l4.049 2.025 4.049-2.025a.73.73 0 11.652 1.305l-3.972 1.985z" fill="#CF0A2C" fill-rule="nonzero"></path></svg>