<svg viewBox="0 0 31 31" id="bra-icon" xmlns="http://www.w3.org/2000/svg"><path d="M27.673 29.088H3.327c-.648-2.993-1.671-7.73-1.98-9.17C2.97 18.56 5.233 13.561 5.92 9.628c.158-.902.718-5.197.852-7.248l1.113-.387c-.126 1.29-.306 3.31-.323 3.53L7.473 6.63c-.215 2.63-.37 4.53.114 6.292.952 3.466 6.11 6.437 7.495 7.033.104.073.225.12.354.12.01 0 .022-.003.033-.004.011.001.024.004.035.004.141 0 .275-.05.385-.133 1.432-.629 6.518-3.581 7.463-7.02.484-1.762.329-3.662.114-6.292l-.088-1.103c-.017-.222-.197-2.242-.323-3.532l1.113.387c.134 2.049.693 6.345.852 7.248.643 3.68 3.037 8.87 4.632 10.29-.31 1.444-1.332 6.178-1.979 9.169m2.911-10.086c-.782-.37-3.574-5.37-4.315-9.61-.16-.92-.784-5.735-.85-7.448a.661.661 0 00-.433-.674L22.61.445a.611.611 0 00-.254-.032.652.652 0 00-.135.006.659.659 0 00-.53.755c.063.425.395 4.13.42 4.457l.089 1.11c.21 2.582.35 4.288-.07 5.816-.783 2.85-5.524 5.627-6.658 6.14-1.164-.528-5.884-3.296-6.665-6.14-.42-1.528-.28-3.234-.07-5.816l.09-1.11c.024-.328.356-4.032.42-4.457a.659.659 0 00-.53-.755.641.641 0 00-.138-.006.607.607 0 00-.252.032l-2.375.825a.66.66 0 00-.433.659l.002.033C5.444 3.73 4.83 8.48 4.67 9.392c-.776 4.44-3.322 9.153-4.243 9.587a.63.63 0 00-.134.088.673.673 0 00-.28.686c.052.271 2.1 9.739 2.186 10.142a.641.641 0 00.62.516H28.18a.64.64 0 00.62-.516c.086-.403 2.134-9.87 2.186-10.142a.66.66 0 00-.403-.751" fill="#000" fill-rule="evenodd"></path></svg>