<svg version="1.0" viewBox="0 0 48 48" id="shipping-icon" xmlns="http://www.w3.org/2000/svg"><path d="M15.5 3C8.3 4.6 1.9 5.9 1.2 5.9.2 6 0 9.3.2 20.7l.3 14.7 8.2 6.3 8.2 6.3 15.5-3.1L48 41.7V12.2l-8.5-6.1c-4.7-3.4-9.1-6.1-9.8-6-.6 0-7 1.4-14.2 2.9zM33 5.8c0 .8-19.2 5.2-22.7 5.2-1.1 0-2.6-.6-3.2-1.4-1-1.2-.3-1.6 4.1-2.5 2.9-.6 8.2-1.7 11.8-2.4 6.1-1.3 10-.8 10 1.1zm7.4 4.7c1.1.8 1.8 1.6 1.5 1.8-.2.2-5.6 1.4-12 2.7-9.4 1.8-12.1 2-13.9 1-1.2-.6-1.9-1.5-1.5-1.8.8-.9 18.2-4.9 21.5-5.1 1.4 0 3.4.6 4.4 1.4zM12.3 17l3.7 2.5V43.2l-3.2-2.4C11 39.5 8 37.3 6.3 36L3 33.6V10.8l2.8 1.9c1.5 1 4.4 2.9 6.5 4.3zm32.5 10.2l-.3 12.2-11 2.3C17.4 44.9 19 46 19 32.1V20.3l6.3-1.3c3.4-.7 8.7-1.8 11.7-2.6 3-.7 6.1-1.3 6.8-1.3 1-.1 1.2 2.7 1 12.1z"></path><path d="M35.4 25.7l-.9 4.7-2.5-3.7c-3.6-5.4-5.6-4.9-6.4 1.5-.3 2.9-.6 6.5-.6 8 0 4.5 2.7 2.3 3.7-2.9l.8-4.7 2.8 4.2c4.3 6.6 5.2 5.9 6.2-4.6.6-6 .5-7.2-.7-7.2-.9 0-1.8 1.7-2.4 4.7z"></path></svg>