<svg id="myNB_wTag" data-name="Layer 1" viewBox="0 0 200 57.18" xmlns="http://www.w3.org/2000/svg"><defs><style>.chcls-1{fill:#a58520}.chcls-2{fill:#151415}</style></defs><path class="chcls-1" d="M548.32 142.23l-2.27 3.92-12.55-.71 1.26-2.18zm9.07-12.51l1.14 4.33-17.81-1.17 1.26-2.19zm-11.8-5.31H556l.79 3-12.47-.79zm-.92 24.18l-1.81 3.13h-13l1.25-2.18zm22.77-8.41l-3.14 5.45h3c1.38 0 3.87-.69 4.63-2.67s-.59-2.79-1.5-2.79zm3-5.22h2.61a4.41 4.41 0 004.2-2.42c.61-1.5-.2-2.77-1.29-2.77h-2.52zm-11.8-.91l2.63-4.58 8.91-.57.31-.56-8.24-.58 1.93-3.35h15.29c4.7 0 8.17 1.68 6.82 6.64-.41 1.5-2.32 5.28-7.92 6.86a4.23 4.23 0 013.64 4.87c-.9 6.05-8.72 8.94-13.06 8.94h-18.06l-.89-3.5 9.45-.67.32-.55-10.25-.63-1.1-4.15 14.58-.85.32-.55-26.21-1.66 1.26-2.18 28.21-1.84.32-.55z" transform="translate(-494 -124.41)"></path><path class="chcls-2" d="M594.26 137v9.22h-3.93v-16.35h3.6v1.45h.07a3.8 3.8 0 013.84-2v3.81c-2.58.08-3.58 1.52-3.58 3.87zM614.74 139.82H602a3.42 3.42 0 00.53 1.18 4.75 4.75 0 004 2.19 4.08 4.08 0 003.78-2.1h4.13a8.46 8.46 0 01-7.91 5.7 8.74 8.74 0 010-17.48 8.41 8.41 0 018.47 8.53 9.55 9.55 0 01-.26 1.98zm-8.21-6.91a4.56 4.56 0 00-4.64 3.75H611a4.21 4.21 0 00-4.47-3.75zM650.44 146.26v-2a8.07 8.07 0 01-5.72 2.57c-4.93 0-8-4.17-8-8.83s3.36-8.65 8.2-8.65a7.24 7.24 0 014.85 1.95 5 5 0 01.59.68h.05v-2.07h3.61v16.39zm-4.9-13.35a5.15 5.15 0 000 10.28c2.93 0 4.79-2.37 4.79-5.17a4.81 4.81 0 00-4.79-5.11zM660 137v9.22h-3.93v-16.35h3.6v1.45h.06a3.8 3.8 0 013.84-2v3.81c-2.57.08-3.57 1.52-3.57 3.87zM677.23 146.26v-2h-.06a6.09 6.09 0 01-5.22 2.54 8.52 8.52 0 01-8.35-8.71 8.63 8.63 0 015.13-8.06 8 8 0 013.22-.71 6.26 6.26 0 015 2v-6.91h3.92v21.85zm-4.87-13.35a5.15 5.15 0 104.84 5.14 5.06 5.06 0 00-4.84-5.14zM688.27 146.79a6.27 6.27 0 01-4.9-2.16 6.17 6.17 0 01-1.24-3.54h4c.26 1.18.8 2.1 2.15 2.1a1.68 1.68 0 001.77-1.66 1.54 1.54 0 00-.23-.85c-.53-.74-2.63-1.3-3.45-1.6-2.19-.77-3.67-2.27-3.67-4.69a5.43 5.43 0 0110.84-.06h-3.84a1.55 1.55 0 00-1.56-1.42 1.44 1.44 0 00-1.51 1.42c0 .86.68 1.09 1.36 1.36.47.17.94.32 1.42.47 2.53.8 4.57 1.86 4.57 4.9a5.62 5.62 0 01-5.71 5.73zM631.35 146.25h-2.42l-3.07-10.62h-.06l-3.1 10.62h-2.42l-5.9-16.38h4.19l3 10h.06l2.69-10h3.13l2.65 10h.06l3-10h4.2z" transform="translate(-494 -124.41)"></path><path class="chcls-2" d="M38.29 5.47l-5.59 9.98-3.22-9.98h-4.49l5.19 14.48-4.11 7.36h4.34L42.95 5.47h-4.66z"></path><path class="chcls-2" d="M512 129.31a6 6 0 00-5.29 2.57 5.46 5.46 0 00-4.72-2.57 4.88 4.88 0 00-4.28 1.95h-.06v-1.39H494v16.39h3.93v-8.18c0-2.22.17-5.17 3.13-5.17 2.48 0 3.27 2.1 3.27 4.25v9.1h3.93v-8.48a6.77 6.77 0 01.59-3.33 3.18 3.18 0 012.71-1.54c2.54 0 3.1 2.16 3.1 4.25v9.1h3.93v-9.57a8.4 8.4 0 00-1.24-4.84 6.53 6.53 0 00-5.35-2.54z" transform="translate(-494 -124.41)"></path><path class="chcls-1" d="M531.12 181.58v-1.88c.76-.07.78-.45.78-1.19v-7.65h1.84v7.69c0 1.69-.93 3.02-2.62 3.03zm.78-11.64v-1.76h1.84v1.76zM538.75 179.16a4.29 4.29 0 114.09-4.3 4.11 4.11 0 01-4.09 4.3zm0-6.81a2.44 2.44 0 00-2.26 2.54 2.26 2.26 0 104.5 0 2.44 2.44 0 00-2.24-2.54zM543.71 169.94v-1.76h1.85v1.76zm0 9v-8h1.85v8zM551.57 178.9v-4c0-1.12-.18-2.58-1.55-2.58a1.59 1.59 0 00-1.27.71 4.17 4.17 0 00-.33 2v3.82h-1.85v-8h1.71v.69a2.77 2.77 0 012.11-1 3.1 3.1 0 012.32 1.12 4.37 4.37 0 01.71 2.74v4.46zM555 178.9V177h1.85v1.92zM571.33 175.74h-6a1.6 1.6 0 00.25.58 2.2 2.2 0 001.87 1.08 1.91 1.91 0 001.78-1h1.94a4 4 0 01-3.72 2.79 4.3 4.3 0 010-8.58 4 4 0 014 4.19 4.58 4.58 0 01-.12.94zm-3.86-3.39a2.17 2.17 0 00-2.18 1.84h4.26a2 2 0 00-2.08-1.84zM578.47 178.9v-1a3.71 3.71 0 01-2.7 1.26c-2.31 0-3.74-2-3.74-4.33a4 4 0 013.86-4.25 3.29 3.29 0 012.27 1 2.22 2.22 0 01.28.33v-1h1.69v8zm-2.31-6.55a2.4 2.4 0 00-2.29 2.57 2.37 2.37 0 002.29 2.48 2.54 2.54 0 000-5.05zM583.05 174.38v4.52h-1.85v-8h1.7v.71a1.76 1.76 0 011.8-1v1.87c-1.18.02-1.65.73-1.65 1.9zM590.66 178.9v-4c0-1.12-.18-2.58-1.56-2.58a1.59 1.59 0 00-1.26.71 4.17 4.17 0 00-.33 2v3.82h-1.85v-8h1.71v.69a2.77 2.77 0 012.11-1 3.1 3.1 0 012.32 1.12 4.37 4.37 0 01.71 2.74v4.46zM594.05 178.9V177h1.84v1.92zM604.5 174.38v4.52h-1.84v-8h1.69v.71a1.77 1.77 0 011.8-1v1.87c-1.15.02-1.65.73-1.65 1.9zM614.28 175.74h-6a1.79 1.79 0 00.25.58 2.23 2.23 0 001.88 1.08 1.91 1.91 0 001.78-1h1.94a4 4 0 01-3.72 2.79 4.3 4.3 0 010-8.58 4.05 4.05 0 014 4.19 4.58 4.58 0 01-.13.94zm-3.86-3.39a2.16 2.16 0 00-2.18 1.84h4.26a2 2 0 00-2.08-1.84zM621.49 178.9v-1a2.85 2.85 0 01-2.46 1.24 4.1 4.1 0 01-3.93-4.27 4.25 4.25 0 012.42-4 3.56 3.56 0 011.51-.35 2.87 2.87 0 012.33 1v-3.39h1.85v10.77zm-2.3-6.55a2.54 2.54 0 102.28 2.52 2.44 2.44 0 00-2.28-2.52zM631.91 175.74h-6a1.6 1.6 0 00.25.58 2.21 2.21 0 001.87 1.08 1.9 1.9 0 001.78-1h1.94a4 4 0 01-3.72 2.79 4.3 4.3 0 010-8.58 4 4 0 014 4.19 4.58 4.58 0 01-.12.94zm-3.86-3.39a2.18 2.18 0 00-2.18 1.84h4.27a2 2 0 00-2.09-1.84zM640.59 175.74h-6a1.6 1.6 0 00.25.58 2.2 2.2 0 001.87 1.08 1.91 1.91 0 001.78-1h1.94a4 4 0 01-3.72 2.79 4.3 4.3 0 010-8.58 4 4 0 014 4.19 4.58 4.58 0 01-.12.94zm-3.86-3.39a2.18 2.18 0 00-2.18 1.84h4.27a2 2 0 00-2.09-1.84zM651.1 178.9v-4.46c0-1-.26-2.09-1.45-2.09a1.49 1.49 0 00-1.28.75 3.54 3.54 0 00-.28 1.64v4.16h-1.85v-4.46c0-1.06-.37-2.09-1.54-2.09-1.39 0-1.47 1.45-1.47 2.54v4h-1.85v-8h1.7v.68a2.25 2.25 0 012-1 2.55 2.55 0 012.22 1.26 2.78 2.78 0 012.49-1.26 3 3 0 012.54 1.25 4.28 4.28 0 01.58 2.38v4.69zM654.49 178.9V177h1.85v1.92z" transform="translate(-494 -124.41)"></path></svg>