<svg viewBox="0 0 40 42" id="amex-icon" xmlns="http://www.w3.org/2000/svg"><g fill-rule="nonzero" fill="none"><path fill="#FFF" d="M6.507 17.058h1.138l-.57-1.486zM12.558 22.045v.69h1.914v.743h-1.914v.796h2.12l.983-1.115-.93-1.114zM27.505 15.572l-.62 1.486h1.189zM18.092 24.698v-3.024l-1.345 1.485zM20.626 22.523c-.051-.319-.259-.478-.569-.478h-1.086V23h1.138c.31 0 .517-.159.517-.477zM24.246 22.894c.104-.053.156-.212.156-.371.052-.212-.052-.319-.156-.372-.103-.053-.258-.053-.413-.053h-1.035v.85h1.035c.155 0 .31 0 .413-.054z"></path><path d="M31.694 14.193v.636l-.31-.636h-2.43v.636l-.311-.636h-3.31c-.57 0-1.035.106-1.448.318v-.318h-2.328v.318c-.258-.212-.569-.318-.982-.318h-8.327l-.57 1.326-.568-1.326H8.472v.636l-.259-.636H5.938l-1.035 2.493-1.19 2.706-.021.053H6.385l.018-.053.31-.796h.673l.31.85h3v-.637l.259.636h1.5l.258-.636v.636h7.189v-1.38h.104c.103 0 .103 0 .103.16v1.167h3.724v-.318c.31.16.775.318 1.396.318h1.552l.31-.848h.724l.31.848h3v-.795l.466.795H34.02v-5.2h-2.327zM14.16 18.65h-.827v-2.918l-.052.121v-.001l-1.203 2.798h-.763l-1.24-2.919v2.919H8.316l-.362-.796H6.196l-.362.796h-.909l1.53-3.714h1.293l1.448 3.554v-3.554h1.37l.025.053h.001l.653 1.457.469 1.091.016-.055 1.035-2.546h1.396v3.714zm3.569-2.919h-2.017v.69h1.965v.743h-1.965v.743h2.017v.796h-2.896v-3.767h2.896v.795zm3.689 1.369l.005.003c.02.02.036.042.05.063.1.133.18.331.183.622l.001.015V17.816c.002.029.002.059.002.09v.744h-.775v-.425c0-.212 0-.53-.156-.743a.47.47 0 00-.152-.106c-.077-.052-.224-.053-.468-.053h-.931v1.327h-.88v-3.714h1.966c.465 0 .776 0 1.035.159.253.156.406.415.412.825-.012.564-.365.874-.62.979 0 0 .173.035.328.2zm1.741 1.55h-.879v-3.714h.88v3.714zm10.086 0h-1.138l-1.655-2.813v2.335l-.006-.006v.486h-.873v-.002h-.88l-.31-.796h-1.81l-.31.849h-.983c-.414 0-.931-.106-1.241-.425-.31-.318-.466-.743-.466-1.432 0-.53.104-1.062.466-1.486.258-.319.724-.424 1.292-.424h.828v.795h-.828c-.31 0-.465.053-.672.213-.155.159-.258.477-.258.848 0 .425.051.69.258.902.156.16.362.213.62.213h.363l1.19-2.918h1.292l1.449 3.555V14.989h1.292l1.5 2.6v-2.6h.88v3.66z" fill="#FFF"></path><path d="M20.681 16.482a.585.585 0 00.112-.457.303.303 0 00-.007-.048l-.002-.012a.295.295 0 00-.158-.18c-.103-.054-.259-.054-.414-.054h-1.034v.85h1.034c.155 0 .31 0 .414-.054a.195.195 0 00.043-.031l.012-.014zM36.297 23.955c0-.37-.103-.742-.258-1.008V20.56h-.003v-.16h-2.49c-.323 0-.714.319-.714.319V20.4h-2.38c-.361 0-.826.107-1.034.319V20.4h-4.24v.319c-.31-.265-.88-.319-1.138-.319h-2.793v.319c-.259-.266-.88-.319-1.19-.319h-3.103l-.724.796-.673-.796h-4.654v5.359h4.551l.748-.767.648.767H19.747v-1.22h.259c.361 0 .827 0 1.189-.16v1.433h2.327v-1.379h.104c.155 0 .155 0 .155.159V25.812h7.034c.465 0 .93-.106 1.19-.318v.318h2.223c.465 0 .931-.053 1.242-.265.476-.293.776-.812.82-1.43l.007-.056-.003-.003a1.82 1.82 0 00.003-.103zm-16.291-.318H18.97v1.38h-1.7l-.99-1.168-.003.004-.048-.057-1.138 1.22h-3.31v-3.713h3.362l.918 1.032.193.216.027-.028 1.086-1.22h2.74c.533 0 1.129.134 1.354.69.027.11.043.232.043.37 0 1.062-.724 1.274-1.5 1.274zm5.172-.053c.103.159.155.371.155.69v.742h-.88v-.477c0-.213 0-.584-.155-.743-.103-.159-.31-.159-.62-.159h-.931v1.38h-.88v-3.768h1.966c.413 0 .775 0 1.034.16.259.159.466.424.466.849 0 .583-.362.901-.62 1.008.258.105.413.212.465.318zm3.568-1.539H26.73v.69h1.965v.743H26.73v.743h2.017v.795H25.85V21.25h2.896v.796zm2.172 2.972h-1.655v-.796h1.655c.155 0 .259 0 .363-.106a.41.41 0 00.103-.266.41.41 0 00-.103-.265c-.052-.053-.156-.106-.311-.106-.828-.053-1.81 0-1.81-1.167 0-.53.31-1.115 1.241-1.115h1.707v.902h-1.603c-.156 0-.26 0-.363.053-.103.054-.103.16-.103.266 0 .159.103.212.207.265.103.053.207.053.31.053h.466c.465 0 .775.106.982.318.156.16.259.425.259.796 0 .796-.465 1.168-1.345 1.168zm4.448-.372c-.206.212-.569.372-1.086.372h-1.655v-.796h1.655c.155 0 .259 0 .362-.106a.412.412 0 00.104-.266.411.411 0 00-.104-.265c-.052-.053-.155-.106-.31-.106-.827-.053-1.81 0-1.81-1.167 0-.504.28-.96.974-1.095.083-.012.171-.02.267-.02h1.707v.902H33.866c-.155 0-.258 0-.361.053a.41.41 0 00-.104.266c0 .159.051.212.207.265a.64.64 0 00.31.053H34.383c.227 0 .397.029.554.085.143.053.617.27.723.839.01.06.016.121.016.19 0 .319-.103.584-.31.796z" fill="#FFF"></path><path d="M37.636 33.34H2.364C1.06 33.34 0 32.357 0 31.143V9.892c0-1.214 1.059-2.198 2.364-2.198h35.272c1.305 0 2.364.984 2.364 2.198v21.25c0 1.214-1.059 2.199-2.364 2.199z" fill="#006FCF"></path><g fill="#FFF"><path d="M6.507 17.413h1.138l-.57-1.485zM12.558 22.4v.69h1.914v.743h-1.914v.796h2.12l.983-1.114-.93-1.115zM27.505 15.928l-.62 1.485h1.189zM18.092 25.053V22.03l-1.345 1.486zM20.626 22.878c-.051-.318-.259-.478-.569-.478h-1.086v.956h1.138c.31 0 .517-.16.517-.478zM24.246 23.25c.104-.053.156-.213.156-.372.052-.212-.052-.318-.156-.371-.103-.053-.258-.053-.413-.053h-1.035v.849h1.035c.155 0 .31 0 .413-.053z"></path><path d="M31.694 14.548v.637l-.31-.637h-2.43v.637l-.311-.637h-3.31c-.57 0-1.035.106-1.448.319v-.319h-2.328v.319c-.258-.213-.569-.319-.982-.319h-8.327l-.57 1.327-.568-1.327H8.472v.637l-.259-.637H5.938l-1.035 2.494-1.19 2.706-.021.053H6.385l.018-.053.31-.796h.673l.31.849h3v-.637l.259.637h1.5l.258-.637v.637h7.189v-1.38h.104c.103 0 .103 0 .103.16v1.167h3.724v-.319c.31.16.775.319 1.396.319h1.552l.31-.849h.724l.31.849h3v-.796l.466.796H34.02v-5.2h-2.327zM14.16 19.005h-.827v-2.918l-.052.122v-.002l-1.203 2.798h-.763l-1.24-2.918v2.918H8.316l-.362-.796H6.196l-.362.796h-.909l1.53-3.714h1.293l1.448 3.555V15.29h1.37l.025.053h.001l.653 1.457.469 1.092.016-.055 1.035-2.547h1.396v3.714zm3.569-2.918h-2.017v.69h1.965v.742h-1.965v.743h2.017v.796h-2.896v-3.767h2.896v.796zm3.689 1.368l.005.003c.02.021.036.043.05.063.1.133.18.331.183.622l.001.015V18.171c.002.03.002.06.002.091v.743h-.775v-.424c0-.213 0-.531-.156-.743a.47.47 0 00-.152-.107c-.077-.051-.224-.052-.468-.052h-.931v1.326h-.88v-3.714h1.966c.465 0 .776 0 1.035.16.253.155.406.414.412.824-.012.565-.365.875-.62.98 0 0 .173.035.328.2zm1.741 1.55h-.879v-3.714h.88v3.714zm10.086 0h-1.138l-1.655-2.812v2.334l-.006-.005v.485h-.873v-.002h-.88l-.31-.796h-1.81l-.31.85h-.983c-.414 0-.931-.107-1.241-.425-.31-.319-.466-.743-.466-1.433 0-.53.104-1.061.466-1.485.258-.319.724-.425 1.292-.425h.828v.796h-.828c-.31 0-.465.053-.672.212-.155.16-.258.478-.258.849 0 .425.051.69.258.902.156.16.362.212.62.212h.363l1.19-2.918h1.292l1.449 3.555V15.344h1.292l1.5 2.6v-2.6h.88v3.661z"></path><path d="M20.681 16.838a.585.585 0 00.112-.457.303.303 0 00-.007-.048l-.002-.013a.295.295 0 00-.158-.18c-.103-.053-.259-.053-.414-.053h-1.034v.849h1.034c.155 0 .31 0 .414-.053a.195.195 0 00.043-.032l.012-.013zM36.297 24.31c0-.37-.103-.742-.258-1.007v-2.388h-.003v-.16h-2.49c-.323 0-.714.32-.714.32v-.32h-2.38c-.361 0-.826.107-1.034.32v-.32h-4.24v.32c-.31-.266-.88-.32-1.138-.32h-2.793v.319c-.259-.265-.88-.318-1.19-.318h-3.103l-.724.796-.673-.796h-4.654V26.114h4.551l.748-.767.648.768H19.747v-1.22h.259c.361 0 .827 0 1.189-.16v1.433h2.327v-1.38h.104c.155 0 .155 0 .155.16v1.22h7.034c.465 0 .93-.107 1.19-.319v.319h2.223c.465 0 .931-.053 1.242-.266.476-.293.776-.811.82-1.43l.007-.055-.003-.003a1.82 1.82 0 00.003-.103zm-16.291-.317H18.97v1.379h-1.7l-.99-1.167-.003.004-.048-.058-1.138 1.221h-3.31v-3.714h3.362l.918 1.032.193.216.027-.028 1.086-1.22h2.74c.533 0 1.129.135 1.354.69.027.11.043.232.043.371 0 1.061-.724 1.274-1.5 1.274zm5.172-.054c.103.16.155.372.155.69v.743h-.88v-.477c0-.213 0-.584-.155-.744-.103-.158-.31-.158-.62-.158h-.931v1.379h-.88v-3.767h1.966c.413 0 .775 0 1.034.159.259.16.466.425.466.85 0 .583-.362.9-.62 1.007.258.106.413.212.465.318zm3.568-1.539H26.73v.69h1.965v.743H26.73v.743h2.017v.796H25.85v-3.767h2.896v.795zm2.172 2.972h-1.655v-.796h1.655c.155 0 .259 0 .363-.106a.41.41 0 00.103-.265.41.41 0 00-.103-.265c-.052-.053-.156-.107-.311-.107-.828-.053-1.81 0-1.81-1.167 0-.53.31-1.114 1.241-1.114h1.707v.902h-1.603c-.156 0-.26 0-.363.053-.103.053-.103.16-.103.265 0 .16.103.213.207.265.103.053.207.053.31.053h.466c.465 0 .775.107.982.319.156.16.259.424.259.796 0 .795-.465 1.167-1.345 1.167zM35.366 25c-.206.213-.569.372-1.086.372h-1.655v-.796h1.655c.155 0 .259 0 .362-.106a.412.412 0 00.104-.265.411.411 0 00-.104-.265c-.052-.053-.155-.107-.31-.107-.827-.053-1.81 0-1.81-1.167 0-.504.28-.96.974-1.095.083-.012.171-.02.267-.02h1.707v.903H33.866c-.155 0-.258 0-.361.053a.41.41 0 00-.104.265c0 .16.051.213.207.265.103.053.207.053.31.053H34.383c.227 0 .397.03.554.085.143.054.617.271.723.84.01.059.016.121.016.19 0 .318-.103.583-.31.795z"></path></g></g></svg>