<svg viewBox="0 0 40 42" id="discover-icon" xmlns="http://www.w3.org/2000/svg"><g fill-rule="nonzero" fill="none"><path d="M38.774 32.494H14.352c16.01-2.832 24.75-9.16 24.75-9.16v8.832c0 .181-.147.328-.328.328z" fill="#FF6000"></path><path d="M38.549 7.694H1.45C.653 7.694 0 8.332 0 9.127v22.78c0 .795.653 1.434 1.451 1.434H38.55c.798 0 1.451-.638 1.451-1.433V9.127c0-.795-.653-1.433-1.451-1.433zm0 .9c.314 0 .562.242.562.533v22.78a.548.548 0 01-.562.534H1.45a.549.549 0 01-.562-.534V9.127c0-.291.248-.533.562-.533H38.55z" fill="#CCC"></path><path d="M31.775 16.533c1.05 0 1.651.517 1.651 1.413 0 .733-.378 1.213-1.063 1.356l1.469 2.015h-1.12l-1.258-1.922h-.118v1.922h-.91v-4.784h1.349zm-.16.753h-.279v1.448h.265c.581 0 .888-.258.888-.74 0-.464-.307-.708-.874-.708zm-4.37-.753h2.578v.81h-1.669v1.063h1.61v.81h-1.61v1.291h1.67v.81h-2.579v-4.784zm-3.899-.001l1.243 3.213 1.26-3.213h.984l-2.014 4.906h-.487l-1.98-4.905h.994v-.001zm-11.385-.077c.51 0 .978.179 1.37.53l-.475.64c-.237-.273-.462-.388-.734-.388-.392 0-.678.229-.678.53 0 .257.16.395.707.602 1.033.387 1.34.731 1.34 1.49 0 .928-.663 1.572-1.608 1.574-.691 0-1.194-.28-1.613-.911l.588-.581c.208.415.56.638.992.638.406 0 .706-.288.706-.675 0-.201-.09-.374-.273-.495-.091-.058-.272-.144-.629-.273-.854-.315-1.146-.653-1.146-1.311 0-.783.628-1.37 1.453-1.37zm4.3-.028c.39 0 .72.085 1.118.293v1.098c-.377-.38-.706-.539-1.14-.539-.853 0-1.523.725-1.523 1.643 0 .968.65 1.65 1.565 1.65.412 0 .734-.151 1.098-.525v1.097c-.413.202-.749.28-1.14.28-1.385 0-2.461-1.09-2.461-2.496a2.482 2.482 0 012.483-2.501zm-10.165.107c1.474 0 2.502.983 2.502 2.395a2.43 2.43 0 01-.845 1.836c-.448.381-.958.553-1.662.553H4.762v-4.784h1.334zm3.83-.001v4.783h-.908v-4.783h.909zm-4.011.81H5.67v3.164h.245c.586 0 .958-.116 1.242-.38.316-.287.505-.746.505-1.205 0-.459-.19-.904-.505-1.19-.3-.28-.656-.388-1.242-.388zm28.49-1.095c.491 0 .9.423.9.933 0 .513-.409.932-.9.932a.923.923 0 01-.918-.932c0-.519.404-.933.917-.933zm-.002.167c-.404 0-.733.347-.733.78 0 .432.333.777.733.777.404 0 .735-.35.735-.778 0-.427-.328-.78-.735-.78zm-.042.237c.258 0 .404.12.404.337a.297.297 0 01-.231.304l.345.448h-.309l-.298-.423v.421h-.253v-1.087h.342z" fill="#000"></path><path d="M17.87 17.951c.376-.913 1.259-1.554 2.285-1.554 1.37 0 2.481 1.14 2.481 2.544 0 .176-.017.348-.05.514-.007.036-.019.073-.027.11-.012.044-.02.089-.035.133-.312 1.035-1.256 1.787-2.369 1.787-1.369 0-2.479-1.138-2.479-2.543 0-.351.068-.685.194-.99z" fill="#FF6000"></path></g></svg>