<svg viewBox="0 0 40 42" fill-rule="evenodd" clip-rule="evenodd" stroke-linejoin="round" stroke-miterlimit="2" id="cartebancaire-icon" xmlns="http://www.w3.org/2000/svg"><path fill="#1787b9" fill-rule="nonzero" d="M.744 7.907h38.524v25.04H.744z"></path><path d="M14.16 20.234h6.76a4.865 4.865 0 00-1.434-3.592c-1.233-1.06-3.38-1.445-5.307-1.445-2.003 0-4.218.424-5.46 1.56a5.222 5.222 0 00-1.291 3.95 5.557 5.557 0 001.608 4.17c1.223 1.05 3.217 1.328 5.143 1.328 1.869 0 3.891-.317 5.105-1.31a5.346 5.346 0 001.637-4.198H14.16v-.463zM21.373 20.697v5.258h9.4a2.611 2.611 0 002.466-2.6 2.679 2.679 0 00-2.466-2.668l-9.4.01zm11.702-2.87v-.02a2.4 2.4 0 00-2.388-2.388h-.02c-.099-.009-.199-.012-.298-.01h-8.996v4.825h9.477a2.436 2.436 0 002.215-2.407" fill="#fff" fill-rule="nonzero"></path></svg>