<svg id="green-leaf-icon" data-name="Layer 1" viewBox="0 0 299.81 552" xmlns="http://www.w3.org/2000/svg"><defs><style>.blcls-2,.blcls-3{fill:#00a651}</style></defs><g class="blcls-1"><path class="blcls-2" d="M299.9 286c-12.26 11-23.49 23-35.14 34.62q-46.51 46.31-92.83 92.79c-.68.68-1.45 1.27-2.19 1.92-1.38-1-.79-2.25-.79-3.28v-75.42a8.38 8.38 0 012.64-6.57q59.76-59.6 119.4-119.3c.56-.56 1.2-1.05 2.25-2 2.65 9.86 3.41 19.54 4.75 29.13.61 4.36.18 8.89 1.94 13.08z" transform="translate(-.1 -.88)"></path><path class="blcls-3" d="M.1 253c2.29-6.46 1.5-13.37 2.88-20 .34-1.62.1-3.34.37-5 1-6.2 2.14-12.38 3.21-18.53 1.67-.64 2.17.73 2.91 1.46q59.54 59.46 119 118.94c1.56 1.56 2.77 3 2.76 5.52-.09 25.81-.06 51.61-.07 77.41a11.57 11.57 0 01-.34 1.81c-4-1.87-6.41-5.29-9.24-8.11Q62 347.14 2.49 287.63A16.32 16.32 0 00.1 286zM169 552.88v-80.92a6.14 6.14 0 011.76-4.91q60.1-59.82 120.1-119.75a20 20 0 012-1.47c-.23 6.06-1.88 11.25-3.19 16.43q-25.93 102.56-102.92 175.15c-5.53 5.23-11.93 9.5-16.76 15.47z" transform="translate(-.1 -.88)"></path><path class="blcls-2" d="M8.37 345a36.42 36.42 0 003 3.92q57.88 57.94 115.87 115.76a12.18 12.18 0 014 9.54c-.18 24-.07 47.95-.1 71.92 0 1.75.52 3.59-.93 6Q32.67 470 6.82 346zM169.69 278.91c-1.18-1.51-.76-2.88-.76-4.14v-74.44c0-2.25.33-4.07 2.08-5.8q42.83-42.66 85.53-85.43a10.59 10.59 0 011.2-.79A252.33 252.33 0 01270.81 135c4 9.31 7.69 18.75 10.9 28.38.72 2.19.66 3.56-1 5.23q-54.8 54.66-109.5 109.39a9 9 0 01-1.52.91z" transform="translate(-.1 -.88)"></path><path class="blcls-3" d="M42.75 107.83c15.42 15.51 30.41 30.62 45.43 45.7q20.1 20.16 40.26 40.23c1.72 1.71 2.84 3.37 2.83 6-.09 25.47 0 50.93-.05 76.4a21.76 21.76 0 01-.21 2.27l-1.41 1.05c-4.8-5.19-9.43-10.55-14.42-15.56Q68.5 217.1 21.61 170.49c-3.08-3.05-3.78-5.62-2.36-9.51 6.59-17.98 13.88-35.61 23.5-53.15zM169.18 142.38V1.42c3.78 1 5.95 4.11 8.55 6.37a363.29 363.29 0 0157.44 63.52c2.05 2.87 2 4.71-.46 7.19q-31.47 31.22-62.81 62.59c-.68.67-1.26 1.57-2.72 1.29zM131.12.88v141.41c-1.77.53-2.38-1-3.22-1.8q-31.11-31-62.2-62.06c-2.18-2.16-3.07-3.67-1-6.61a372.91 372.91 0 0161.85-67.55c1.21-1.04 2.57-1.92 4.57-3.39z" transform="translate(-.1 -.88)"></path></g></svg>