<svg viewBox="0 0 43 38" id="reviews-icon" xmlns="http://www.w3.org/2000/svg"><g stroke="#000" fill="none" fill-rule="evenodd"><path d="M38.304 1.839c.483 0 .92.196 1.238.512.316.317.512.755.512 1.238h0v23.67c0 .483-.196.92-.512 1.237a1.745 1.745 0 01-1.238.513h0-22.913l-5.02 4.8v-4.8H3.138c-.484 0-.921-.196-1.238-.513a1.745 1.745 0 01-.512-1.237h0V3.589c0-.483.195-.92.512-1.238A1.745 1.745 0 013.14 1.84h0z" stroke-width="2.5"></path><path stroke-width="2.3" stroke-linecap="round" stroke-linejoin="round" d="M7.267 8.735h15.336M7.267 12.746h15.336M7.267 16.756h15.336"></path></g></svg>