<svg viewBox="0 0 480 301" id="maestro-icon" xmlns="http://www.w3.org/2000/svg"><g fill="none" fill-rule="evenodd"><path d="M444 0H24C12 0 0 12.006 0 24.011v240.112c0 24.011 12 36.017 36 36.017h408c24 0 36-12.006 36-36.017V36.017C480 12.006 468 0 444 0z" fill="#F4F4F4"></path><path d="M240.257 242.896c25.315-22.932 41.139-56.073 41.139-92.907 0-36.83-15.824-69.944-41.14-92.879-22.15-20.16-51.747-32.427-83.95-32.427-69.246 0-125.275 56.099-125.275 125.306 0 69.235 56.029 125.334 125.275 125.334 32.2.003 61.797-12.291 83.95-32.427" fill="#4186CD"></path><path d="M240.257 242.896c25.315-22.932 41.139-56.073 41.139-92.907 0-36.83-15.824-69.944-41.14-92.879v185.786z" fill="#4487CA"></path><path d="M324.394 24.686c-32.39 0-61.987 12.268-84.137 32.427-4.468 4.123-8.75 8.552-12.658 13.285h25.316c3.538 4.2 6.703 8.63 9.495 13.262h-44.304a157.327 157.327 0 00-7.26 13.262h58.821c2.046 4.303 3.722 8.73 5.211 13.285h-69.246c-1.49 4.303-2.792 8.733-3.722 13.262h76.693c1.863 8.552 2.793 17.435 2.793 26.524 0 13.919-2.236 27.31-6.518 39.809h-69.243c1.49 4.553 3.165 8.982 5.211 13.282h58.821c-2.235 4.586-4.468 9.012-7.26 13.265h-44.304c2.792 4.633 6.144 9.062 9.496 13.265h25.316c-3.909 4.73-8.19 9.16-12.658 13.282 22.15 20.136 51.747 32.43 84.137 32.43 69.06 0 125.089-56.099 125.089-125.333 0-69.208-56.033-125.307-125.09-125.307" fill="#CA4638"></path><path d="M436.265 219.607h.56c.19 0 .37.027.37-.053.19-.1.373-.253.373-.404 0-.156-.187-.306-.373-.383 0-.077-.37-.053-.37-.053h-.56v.893zm0 2.035h-.743v-3.562h1.49c.37 0 .556 0 .93.18.186.203.369.534.369.894 0 .403-.187.764-.56.91l.56 1.581h-.93l-.37-1.424h-.75v1.421h.004zm.56 1.3c1.676 0 3.165-1.373 3.165-3.081s-1.49-3.082-3.165-3.082c-1.673 0-2.979 1.374-2.979 3.082 0 1.708 1.306 3.082 2.979 3.082zm-4.095-3.081c0-2.242 1.863-4.046 4.095-4.046 2.236 0 4.095 1.804 4.095 4.046 0 2.241-1.863 4.046-4.095 4.046-2.232 0-4.095-1.805-4.095-4.046zM136.758 184.865h-15.823l9.306-48.848-21.407 48.848H95.803l-2.606-48.568-10.422 48.568H68.44l12.098-63.53h24.76l.37 39.325 17.125-39.326h26.246l-12.282 63.531M310.803 184.225c-4.282 1.174-7.634 1.68-11.169 1.68-8.003 0-12.288-3.995-12.288-11.35 0-1.45 0-3.002.37-4.636l.93-5.063.746-4.073 7.26-39.455h15.45l-2.232 11.86h8.003l-2.232 12.549h-8.004l-4.094 21.56c-.187.964-.187 1.655-.187 2.138 0 2.672 1.49 3.843 5.211 3.843 1.863 0 3.162-.15 4.282-.484l-2.046 11.43M249.006 149.51c0 6.54 3.539 11.023 11.912 14.405 6.33 2.598 7.443 3.362 7.443 5.704 0 3.235-2.792 4.68-9.116 4.68-4.655 0-9.123-.631-14.147-2.059l-2.05 11.935.56.103 2.98.534c.929.153 2.235.307 4.094.457 3.722.28 6.7.437 8.746.437 16.57 0 24.203-5.474 24.203-17.258 0-7.078-3.165-11.25-10.985-14.386-6.7-2.622-7.443-3.182-7.443-5.597 0-2.802 2.605-4.226 7.633-4.226 3.162 0 7.443.307 11.352.79l2.235-11.964c-4.095-.56-10.239-1.017-13.777-1.017-17.682 0-23.826 7.942-23.64 17.461M176.594 161.854c-1.672-.18-2.419-.227-3.538-.227-8.746 0-13.215 2.645-13.215 7.862 0 3.205 2.233 5.27 5.585 5.27 6.327.003 10.982-5.267 11.168-12.905zm10.609 23.011h-13.031l.373-5.37c-4.095 4.25-9.306 6.26-16.383 6.26-8.563 0-14.334-5.753-14.334-14.102 0-12.598 10.053-19.93 27.362-19.93 1.862 0 4.095.124 6.33.405.557-1.705.744-2.442.744-3.36 0-3.435-2.793-4.709-10.053-4.709-4.468 0-9.492.56-13.03 1.45l-2.05.535-1.49.33 2.233-11.604c7.817-1.988 12.841-2.749 18.612-2.749 13.4 0 20.478 5.244 20.478 15.17 0 2.545-.187 4.48-1.303 10.233l-3.165 18.325-.557 3.282-.373 2.622-.373 1.808v1.404h.01zM230.764 152.995c0-1.068.187-1.958.187-2.622 0-4.2-2.792-6.67-7.447-6.67-5.025 0-8.563 3.308-9.866 9.262l17.126.03zm7.63 30.75c-5.398 1.427-10.612 2.11-16.01 2.084-17.495 0-26.431-7.942-26.431-23.135 0-17.741 11.541-30.8 27.178-30.8 12.84 0 21.034 7.305 21.034 18.783 0 3.822-.56 7.508-2.05 12.751h-30.9c-.186.787-.186 1.147-.186 1.628 0 5.98 4.655 9.036 13.774 9.036 5.585 0 10.612-.991 16.197-3.26l-2.606 12.912zM388.799 155.263c0-5.397-2.232-10.514-8.56-10.514-8.003 0-12.84 9.42-12.84 17.715 0 7.001 3.348 11.711 8.935 11.604 3.349 0 10.61-4.606 11.912-12.651.366-1.855.553-3.913.553-6.154zm15.823 6.18c-2.236 17.182-14.334 24.796-30.34 24.796-17.5 0-24.573-10.69-24.573-23.798 0-18.329 11.915-30.723 30.53-30.723 16.193 0 24.76 10.206 24.76 23.318-.004 3.179-.004 3.406-.377 6.407z" fill="#231F20"></path><path d="M409.833 176.923h.557s.19 0 .373-.076c.183-.077.186-.254.186-.407 0-.127 0-.28-.186-.354 0-.077-.373-.077-.557-.077h-.373v.914zm0 2.012h-.746v-3.563h1.49c.186 0 .559.027.929.207.186.177.37.534.37.89 0 .381-.187.765-.557.915l.557 1.554h-.93l-.56-1.4h-.553v1.397zm.557 1.297c1.679 0 2.982-1.374 2.982-3.082 0-1.68-1.303-3.055-2.982-3.055-1.673 0-3.162 1.374-3.162 3.055 0 1.708 1.49 3.082 3.162 3.082zm-4.092-3.082c0-2.215 1.863-4.019 4.095-4.019 2.236 0 4.095 1.804 4.095 4.02 0 2.24-1.863 4.045-4.095 4.045-2.236 0-4.095-1.804-4.095-4.046zM140.666 181.196H125.03l9.306-48.844-21.408 48.844H98.781l-2.605-48.538-9.306 48.538H72.723l12.098-63.53h24.382l1.117 39.351 17.312-39.352h25.316l-12.282 63.531M314.714 180.59c-4.281 1.17-7.633 1.677-11.171 1.677-8.004 0-12.288-4.02-12.288-11.347 0-1.455.186-3.002.373-4.633l.93-5.07.742-4.1 7.264-39.452h15.45l-2.232 11.861h8.003l-2.236 12.575h-8.003l-4.095 21.557c-.187.944-.187 1.655-.187 2.142 0 2.675 1.676 3.819 5.398 3.819 1.676 0 2.982-.154 4.095-.487l-2.043 11.457" fill="#FFF"></path><path d="M354.734 144.366l-.37-1.628 3.165-8.095c-.75-.077-1.12-.1-1.12-.15-.929-.18-1.302-.28-1.489-.28-.37-.104-.93-.127-1.486-.127-5.21 0-8.75 2.265-13.59 8.375l1.679-9.189h-16.196l-9.496 51.593h15.453c2.046-11.837 2.979-18.578 4.281-24.182 2.046-9.29 8.937-13.515 13.961-12.575.556.104.93.104 1.673.384l.93.353 2.605-4.48" fill="#231F20"></path><path d="M360.131 129.96c-1.302-.51-1.489-.51-1.672-.56-.75-.18-1.306-.28-1.306-.307a12.283 12.283 0 00-1.676-.127c-5.025 0-8.746 2.291-13.588 8.402l1.49-7.842H329.23l-9.495 51.67h15.636c5.584-31.587 8.003-37.134 15.45-37.134.56 0 1.116.05 1.863.127l1.862.38 5.584-14.609M252.911 145.87c0 6.514 3.722 11.02 12.102 14.406 6.327 2.572 7.26 3.336 7.26 5.704 0 3.205-2.792 4.656-8.936 4.656-4.842 0-9.123-.637-14.148-2.038l-2.232 11.914.743.124 2.792.507c.93.183 2.423.333 4.282.463 3.721.28 6.514.43 8.563.43 16.75 0 24.382-5.446 24.382-17.23 0-7.102-3.162-11.25-11.168-14.383-6.514-2.622-7.264-3.205-7.264-5.627 0-2.775 2.61-4.2 7.634-4.2 3.162 0 7.26.281 11.355.765l2.232-11.961c-4.095-.56-10.235-1.021-13.957-1.021-17.496.003-23.64 7.945-23.64 17.491M179.946 158.188c-1.676-.177-2.422-.203-3.538-.203-8.75 0-13.218 2.645-13.218 7.861 0 3.209 2.05 5.27 5.584 5.27 6.33.004 10.799-5.293 11.172-12.928zm11.352 23.008h-13.031l.373-5.343c-3.908 4.246-9.306 6.234-16.383 6.234-8.376 0-14.147-5.754-14.147-14.103 0-12.578 10.052-19.93 27.361-19.93 1.676 0 3.909.151 6.328.408.373-1.708.556-2.418.556-3.359 0-3.412-2.792-4.683-10.052-4.683-4.468 0-9.496.534-12.845 1.424l-2.232.56-1.303.334 2.05-11.634c7.816-1.985 12.84-2.722 18.611-2.722 13.401 0 20.478 5.244 20.478 15.147 0 2.545-.187 4.48-1.116 10.23l-3.352 18.355-.556 3.282-.374 2.621-.186 1.778-.18 1.401zM234.113 149.356v-2.649c0-4.199-2.606-6.644-7.26-6.644-5.025 0-8.563 3.282-10.053 9.266l17.313.027zm8.193 30.746a60.37 60.37 0 01-15.827 2.088c-17.495 0-26.618-7.942-26.618-23.161 0-17.715 11.538-30.773 27.175-30.773 12.844 0 21.034 7.304 21.034 18.758 0 3.82-.56 7.535-1.866 12.775h-30.897c-.186.79-.186 1.147-.186 1.628 0 5.984 4.651 9.039 13.587 9.039 5.585 0 10.612-1.02 16.193-3.286l-2.595 12.932zM392.52 151.164c0-5.397-2.232-10.51-8.559-10.51-8.003 0-12.841 9.416-12.841 17.714 0 7.025 3.352 11.738 8.936 11.631 3.352 0 10.609-4.606 11.912-12.651.37-1.885.553-3.943.553-6.184zm16.197 6.62c-2.422 17.178-14.337 24.813-30.34 24.813-17.686 0-24.76-10.717-24.76-23.825 0-18.302 12.099-30.72 30.717-30.72 16.19 0 24.756 10.207 24.756 23.315 0 3.205 0 3.412-.373 6.417z" fill="#FFF"></path></g></svg>