<svg viewBox="0 0 13 22" id="green-leaf-icon-pdp" xmlns="http://www.w3.org/2000/svg"><path d="M7.123 18.116v.396H7.12v2.648c2.196-1.878 3.763-4.53 4.32-7.56l-4.317 4.517zM2.59 4.96a12.746 12.746 0 00-.869 2.077l3.96 4.043V8.115L2.589 4.96zm3.091 8.526v-.398L1.234 8.56A13.26 13.26 0 001 11.042c0 .106.002.211.005.316L5.68 16.12v-2.634zm6.12-2.447c0-.848-.08-1.677-.233-2.479l-4.443 4.524v.397H7.12v2.639l4.675-4.761c.003-.107.005-.213.005-.32M7.124 8.5H7.12v2.58l3.96-4.043a12.743 12.743 0 00-.868-2.077L7.124 8.113V8.5zM5.68 18.515v-.397L1.36 13.6c.556 3.03 2.123 5.683 4.32 7.56v-2.645zM7.12 6.4l2.52-2.586A13.327 13.327 0 007.12 1v5.4zm-1.44 0V1a13.333 13.333 0 00-2.52 2.813L5.68 6.4z" fill="#00a651" fill-rule="evenodd"></path></svg>