<svg viewBox="0 0 40 42" id="visa-icon" xmlns="http://www.w3.org/2000/svg"><g fill-rule="nonzero" fill="none"><path d="M38.549 7.694H1.45C.653 7.694 0 8.332 0 9.127v22.78c0 .795.653 1.434 1.451 1.434H38.55c.798 0 1.451-.638 1.451-1.433V9.127c0-.795-.653-1.433-1.451-1.433zm0 .9c.314 0 .562.242.562.533v22.78a.548.548 0 01-.562.534H1.45a.549.549 0 01-.562-.534V9.127c0-.291.248-.533.562-.533H38.55z" fill="#CCC"></path><g fill="#1A1F71"><path d="M17.003 15.414l-1.641 10.477h2.623l1.64-10.477h-2.622zm7.912 4.268c-.916-.464-1.478-.778-1.478-1.253.011-.432.475-.874 1.511-.874a4.466 4.466 0 011.954.388l.238.109.357-2.192a6.474 6.474 0 00-2.355-.432c-2.59 0-4.414 1.382-4.426 3.358-.021 1.458 1.306 2.267 2.3 2.753 1.014.498 1.36.82 1.36 1.263-.011.68-.82.993-1.576.993-1.046 0-1.608-.162-2.462-.54l-.345-.162-.367 2.278c.616.282 1.75.529 2.926.541 2.753 0 4.544-1.36 4.567-3.466.009-1.156-.691-2.04-2.204-2.764zm9.307-4.235h-2.03c-.625 0-1.1.184-1.371.843l-3.897 9.601h2.753l.759-2.078h3.08l.393 2.087h2.428l-2.115-10.453zm-3.023 6.268c.053.005 1.057-3.394 1.057-3.394l.799 3.394h-1.856zm-18.03-6.3l-2.57 7.118-.28-1.404c-.475-1.62-1.964-3.38-3.627-4.254l2.353 9.006h2.776l4.124-10.465H13.17v-.002z"></path><path d="M9.455 16.766c-.2-.8-.839-1.338-1.706-1.35h-4.07l-.043.194c3.175.803 5.84 3.274 6.705 5.598l-.886-4.442z"></path></g></g></svg>