<svg viewBox="0 0 40 20" id="shoes-icon" xmlns="http://www.w3.org/2000/svg"><path d="M16.117.124a.888.888 0 01.715.044c.328.167 1.79 1.194 3.983 2.741 2.29 1.612 5.423 3.82 7.51 5.184.693.332 1.544.745 2.602 1.284 1.74.886 3.644 1.141 5.174 1.346 1.265.169 2.257.3 2.891.734 1.544 1.046.758 3.688.663 3.986a.297.297 0 01-.03.09l-.061.196-.079.04C37.24 19.264 27.793 20 20.24 20 6.202 20 .688 18.41.46 18.342a.658.658 0 01-.388-.323.688.688 0 01-.042-.507l.77-2.356c.005-.762.088-5.965 1.238-9.098C3.218 2.854 4.8 1.819 5.106 1.644c.242-.179.534-.276.845-.276.906 0 1.695.842 2.61 1.817 1.083 1.159 2.29 2.448 3.678 2.448 1.144 0 1.905-.485 2.494-1.008-.581-.625-.756-1.258-.489-1.804.048-.096.098-.205.155-.329.445-.959.978-2.11 1.718-2.368zM1.602 15.544l-.654 2c1.194.301 6.92 1.558 19.291 1.558 9.594 0 16.031-1.189 18.125-3.347l.037-.038c-3.77 1.067-11 1.838-14.286 1.838l-.276-.004a154.87 154.87 0 01-11.405-.6c-.454-.042-.89-.083-1.316-.128-4.258-.416-7.378-.906-8.858-1.161a70.98 70.98 0 01-.658-.117zM27.914 11.2c-.386.077-.67.28-.907.643-.438.67-1.592 2.37-3.263 4.81l.37.006c3.467 0 11.35-.865 14.72-2.013a.972.972 0 01.118-.026c.138-.68.272-1.926-.446-2.415-.47-.32-1.44-.447-2.561-.595l-.281-.038a.432.432 0 01-.161.06c-.604.086-3.694.52-5.46.52-.8 0-1.067-.089-1.199-.156-.511-.26-.784-.555-.93-.796zM20.528 4.59l-6.936 7.47c.798.391 1.302.624 1.611.749 1.745.711 1.923 2.694 1.909 3.586 1.854.114 3.726.194 5.573.235.14-.205 2.812-4.101 3.587-5.288.448-.684 1.063-1.036 1.88-1.077.304-.012.568.011.802.031l.154.013c.117.009.226.018.331.018.306 0 .592-.149.801-.298l-.273-.135-.132-.069c-.029-.014-.057-.027-.084-.043-.67-.33-1.255-.617-1.793-.876h-.187l-.003-.09c-1.46-.698-2.614-1.25-4.448-2.317-1.104-.644-1.946-1.275-2.69-1.832l-.102-.077zM3.823 8.008c-.434.165-.938.18-1.434.036-.303 1.378-.469 2.876-.558 3.98 1.16.213 4.645.83 7.262 1.162 2.733.35 3.483 2.12 3.68 2.892 1.228.105 2.362.191 3.454.262.004-.721-.143-2.205-1.353-2.7-1.185-.483-4.962-2.407-10.922-5.564zm-1.944 4.937v1.74c1.26.224 4.877.824 9.952 1.304-.253-.66-.949-1.669-2.845-1.909-1.75-.224-4.14-.605-7.107-1.135zM19.992 7.21a.468.468 0 01.503-.126l2.497.775c.18.05.313.217.313.403v1.695l.826-1.156a.484.484 0 01.558-.156l2.08.775c.126.043.224.14.27.267a.405.405 0 01-.066.378l-3.75 5.042a.463.463 0 01-.377.186.472.472 0 01-.179-.034l-2.08-.775a.423.423 0 01-.287-.395v-2.747l-2.115 2.252a.484.484 0 01-.52.113l-2.086-.777a.446.446 0 01-.275-.292.413.413 0 01.105-.385zm.498.772l-3.976 4.375 1.194.445 2.704-2.879a.485.485 0 01.505-.12c.188.072.301.229.301.401V13.8l1.46.544 3.218-4.33-1.206-.446-1.46 2.04a.485.485 0 01-.511.174.432.432 0 01-.332-.411v-2.8l-1.897-.588zm-2.65-4.718c-.56 0-1.03.502-1.626 1.137-.112.118-.226.24-.344.362-.056.057-.11.112-.164.163l-.148-.163.147.164-.075.076-.08.073-.077.077.33.177c.363.195.612.56.666.976.05.423-.102.84-.405 1.12l-3.112 2.885c-.374.35-.98.427-1.414.2L5.644 7.505a.529.529 0 01-.124-.095c-.392-.057-.585-.02-.774.077 1.243.658 5.214 2.757 8.016 4.16L19.8 4.065c-.719-.497-1.316-.799-1.96-.799zm13.28 7.187c-.227.226-.889.797-1.766.771.403.072 1.581.041 3.525-.168a12.032 12.032 0 01-1.758-.603zM9.945 5.698c-.501.624-1.48 1.404-2.474 1.732l4.46 2.278c.14.072.314.047.432-.061l3.112-2.885a.398.398 0 00.123-.342.385.385 0 00-.205-.292l-.675-.363a4.26 4.26 0 01-2.478.766c-.754 0-1.507-.273-2.295-.833zM5.951 2.265a.59.59 0 00-.367.135l-.038.024c-.014.007-1.537.832-2.682 3.948-.096.264-.182.531-.258.798.229.067.643.139 1.038-.063.145-.072.258-.147.367-.218.624-.405 1.046-.552 2.334-.225.853.218 2.33-.797 2.91-1.52-.467-.417-.894-.873-1.307-1.316-.75-.804-1.459-1.563-1.997-1.563zm11.108 2.44c.324 0 .588.265.588.589l-.005.066a.533.533 0 01-.086.245.565.565 0 01-.257.225.585.585 0 01-.829-.536c0-.02 0-.056.01-.096a.523.523 0 01.107-.252.585.585 0 01.472-.24zm1.176-1.176a.589.589 0 11-.001 1.178.589.589 0 01.001-1.178zM16.445.975l-.004.002-.04-.002c-.384.133-.923 1.293-1.18 1.851l-.108.226-.08.169c-.088.178.034.458.336.785.07-.073.137-.146.203-.218.658-.7 1.334-1.42 2.267-1.42.285 0 .555.04.82.113-1.12-.785-2.028-1.412-2.214-1.506z" fill="#000" fill-rule="evenodd"></path></svg>