<svg viewBox="0 0 24 24" id="cart-icon-white" xmlns="http://www.w3.org/2000/svg"><g fill="#fff" fill-rule="nonzero"><path d="M10 21a3 3 0 10-6 0 3 3 0 006 0zm-4.176 0a1.2 1.2 0 111.2 1.2A1.2 1.2 0 015.827 21h-.003zM20 21a3 3 0 10-6 0 3 3 0 006 0zm-4.176 0a1.2 1.2 0 111.2 1.2 1.2 1.2 0 01-1.206-1.2h.006zM5.282 2.268L4.575 0H0v1.605h3.407l3.619 10.887L5.282 16.7h15.29v-1.605H7.693l.412-1.086 13.911-1.516L24 2.268H5.282zm15.29 8.763L8.754 12.138 5.896 3.952h16.126l-1.45 7.08z"></path><path d="M11 10l1.4-5h1.057l1.518 3.179L15.868 5H17l-1.4 5h-.975l-1.578-3.279L12.132 10z"></path></g></svg>