<svg viewBox="0 0 24 24" id="rating-active" xmlns="http://www.w3.org/2000/svg"><defs><path d="M11.806 20.007l-6.501 3.594a.4.4 0 01-.589-.414l1.251-7.671a.4.4 0 00-.108-.344L.544 9.724A.4.4 0 01.77 9.05l7.31-1.117a.4.4 0 00.302-.226L11.638.771a.4.4 0 01.724 0l3.256 6.936a.4.4 0 00.301.226L23.23 9.05a.4.4 0 01.226.674l-5.315 5.448a.4.4 0 00-.108.344l1.25 7.671a.4.4 0 01-.588.414l-6.501-3.594a.4.4 0 00-.388 0z" id="cqa"></path></defs><use fill="#151415" xlink:href="#cqa" fill-rule="evenodd"></use></svg>