<svg viewBox="0 0 39 37" id="ratings-icon" xmlns="http://www.w3.org/2000/svg"><path d="M20.302.606c.298.13.536.37.664.672l4.421 10.36c.185.433.587.73 1.05.773l11.107 1.052c.7.066 1.215.695 1.15 1.403-.031.327-.184.63-.428.848l-8.373 7.455c-.35.31-.504.79-.402 1.25l2.443 11.01a1.29 1.29 0 01-.963 1.54 1.261 1.261 0 01-.929-.15l-10.245-6.142L9.552 36.82a1.266 1.266 0 01-1.746-.452 1.302 1.302 0 01-.147-.94l2.443-11.01a1.298 1.298 0 00-.4-1.25l-8.374-7.454a1.3 1.3 0 01-.115-1.82c.214-.246.514-.4.837-.431l11.106-1.052c.463-.044.866-.34 1.05-.772l4.421-10.36a1.268 1.268 0 011.675-.673zm-.505 4.435l-3.251 7.62a3.829 3.829 0 01-2.91 2.285l-.243.031-8.168.773 6.16 5.484a3.892 3.892 0 011.252 3.49l-.049.259-1.797 8.097 9.006-5.399 9.005 5.399-1.796-8.097a3.897 3.897 0 011.014-3.569l.19-.18 6.157-5.484-8.167-.773a3.822 3.822 0 01-3.048-2.092l-.104-.225-3.251-7.62z" fill="#000" fill-rule="nonzero"></path></svg>