<svg viewBox="0 0 24 26" id="question-icon" xmlns="http://www.w3.org/2000/svg"><g fill="none" fill-rule="evenodd"><path d="M12 .483c6.627 0 12 5.511 12 12.31s-5.373 12.31-12 12.31-12-5.511-12-12.31S5.373.483 12 .483zm0 2.051c-5.523 0-10 4.593-10 10.26 0 5.665 4.477 10.258 10 10.258s10-4.593 10-10.259S17.523 2.534 12 2.534z" fill="#151415" fill-rule="nonzero"></path><path d="M12.28 15.32l.16-1.329c1.776-.312 3.216-1.247 3.216-3.332 0-2.068-1.504-3.348-3.744-3.348-1.728 0-2.928.739-3.856 1.822l1.2 1.313c.768-.837 1.6-1.297 2.608-1.297 1.152 0 1.84.64 1.84 1.576 0 1.1-.928 1.773-2.96 1.855l-.08.082.32 2.659h1.296zm.384 3.628V16.7H10.52v2.248h2.144z" fill="#151415" fill-rule="nonzero"></path></g></svg>