<svg viewBox="0 0 40 39" id="top-icon" xmlns="http://www.w3.org/2000/svg"><path d="M33.179 19.49l-1.382-2.47-1.091-1.83-.018 2.084c-.005.71-.134 16.132-.153 18.749-1.306.576-4.396 1.815-10.262 1.819-5.9-.004-9.072-1.272-10.45-1.88-.007-2.604-.056-17.772-.058-18.47l-.02-2.102-2.397 4.062c-1.313-.478-4.902-2.34-6.051-3.016C2.216 14.486 7.16 5.69 7.475 5.19a1.056 1.056 0 01.25-.261c.586-.414 3.94-1.843 6.79-3.011.38 1.25 1.675 3.934 5.82 3.934 3.864-.09 5.16-2.683 5.561-3.937 2.829 1.223 6.19 2.729 6.784 3.148.078.056.16.14.25.261l.032.045c.274.461 4.818 8.843 5.743 10.672-.99.73-4.322 2.784-5.526 3.45M15.88 1.364c.535.369 1.754.932 4.217.932 2.58 0 3.918-.605 4.472-.95l.253.107a4.662 4.662 0 01-.662 1.398c-.83 1.183-2.127 1.803-3.838 1.843-3.574 0-4.504-2.342-4.726-3.215l.284-.115m21.125 8.997c-1.14-2.114-2.966-5.476-3.057-5.614l-.09-.128a2.258 2.258 0 00-.499-.498C32.318 3.384 25.53.49 24.758.164l-.11-.046-.396.007-.165.141c-.01.009-1.052.872-3.99.872-2.848 0-3.658-.807-3.66-.807L16.165 0l-.4.16c-.782.314-7.672 3.086-8.723 3.83a2.202 2.202 0 00-.428.409 2.14 2.14 0 00-.098.128C6.4 4.69 4.524 8.02 3.17 10.468-.184 16.53-.14 16.598.093 16.969c.315.508 6.435 3.579 7.44 3.735l.394.06.676-1.145.053 16.72v.377l.487.213c1.263.566 4.618 2.067 11.13 2.071 6.457-.004 9.721-1.464 10.95-2.014l.478-.227v-.363c0-.208.097-11.93.138-16.912l.376.673.468.713.374-.058c.097-.015.392-.06 3.544-2.018 3.296-2.046 3.33-2.216 3.386-2.494.057-.28.06-.296-2.982-5.939" fill="#000" fill-rule="evenodd"></path></svg>