<svg viewBox="0 0 13 14" id="padlock" xmlns="http://www.w3.org/2000/svg"><path d="M2.2 5.6V4.2c0-1.1.5-2.2 1.3-3C4.2.4 5.4 0 6.5 0s2.3.4 3.1 1.2c.8.8 1.3 1.9 1.3 3v1.4h.7c.4 0 .8.1 1 .4.2.3.4.6.4 1v5.6c0 .4-.2.7-.4 1-.3.3-.6.4-1 .4H1.4c-.4 0-.8-.1-1-.4-.2-.3-.4-.6-.4-1V7c0-.8.6-1.4 1.4-1.4h.8zm3.6 4.7v1.6h1.4v-1.6c.3-.2.5-.4.6-.7.2-.3.2-.6.1-.9-.1-.3-.3-.5-.5-.7-.3-.2-.6-.3-.9-.3s-.6.1-.9.3c-.2.2-.4.4-.5.7-.1.3-.1.6.1.9.1.3.3.6.6.7zM4.3 4.2v1.4h4.3V4.2c0-.6-.2-1.1-.6-1.5-.4-.4-1-.6-1.5-.6s-1.1.2-1.5.6c-.4.4-.7.9-.7 1.5z"></path></svg>