<svg fill="none" viewBox="0 0 13 14" id="padlock-white" xmlns="http://www.w3.org/2000/svg"><path d="M2.167 5.6V4.2c0-1.114.456-2.182 1.269-2.97A4.404 4.404 0 016.5 0c1.15 0 2.251.442 3.064 1.23a4.135 4.135 0 011.27 2.97v1.4h.722c.383 0 .75.147 1.02.41.272.263.424.619.424.99v5.6c0 .371-.152.727-.423.99-.271.262-.638.41-1.021.41H1.444c-.383 0-.75-.148-1.02-.41A1.378 1.378 0 010 12.6V7c0-.77.65-1.4 1.444-1.4h.723zm3.61 4.711V11.9h1.445v-1.589c.276-.154.49-.392.612-.677.122-.284.144-.6.061-.898a1.398 1.398 0 00-.516-.748 1.474 1.474 0 00-.879-.29c-.318 0-.627.102-.88.29-.252.187-.433.45-.515.748a1.36 1.36 0 00.06.898c.122.285.337.523.613.677zM4.334 4.2v1.4h4.334V4.2c0-.557-.229-1.091-.635-1.485A2.202 2.202 0 006.5 2.1c-.575 0-1.126.221-1.532.615A2.068 2.068 0 004.333 4.2z" fill="#fff"></path></svg>