<svg viewBox="0 0 38 38" id="comparison-icon" xmlns="http://www.w3.org/2000/svg"><g fill="#000" fill-rule="nonzero"><path d="M35.403 8.05a2 2 0 012 2v25a2 2 0 01-2 2h-19a2 2 0 01-2-2v-25a2 2 0 012-2h19zm-.502 2.661H16.905v23.68h17.996V10.71z"></path><path d="M3.903 31.066a3 3 0 01-2.995-2.824l-.005-.176v-25A3 3 0 013.727.07l.176-.005h19a3 3 0 012.995 2.824l.005.176v2.978c0 .552-.702 1-1.254 1-.513 0-1.111-.386-1.17-.884l-.006-.116v-2.36a1 1 0 00-.883-.994l-.117-.007H4.555a1 1 0 00-.993.883l-.007.117V27.61a1 1 0 00.883.994l.117.006h7.112c.552 0 1 .603 1 1.155 0 .513-.386 1.237-.884 1.295l-.116.007H3.903z"></path></g></svg>