<svg viewBox="1.55 1.397 37.216 23.489" id="cup-icon" xmlns="http://www.w3.org/2000/svg"><rect width="36.65" height="21.846" x="2.116" y="1.407" fill="#fff" rx="2.82"></rect><path fill="#01798a" d="M26.848 1.407a3.285 3.285 0 00-2.913 2.267L19.922 22.62a1.733 1.733 0 001.62 2.266h14.846a2.274 2.274 0 002.265-2.285V2.977a1.828 1.828 0 00-1.504-1.58"></path><rect width="16.49" height="23.478" y="1.407" fill="#dc1f2b" rx="2.82" x="1.55"></rect><path fill="#1a4580" d="M24.502 3.681a3.22 3.22 0 012.815-2.267H16.258c-1.32.101-2.445 1-2.832 2.267L9.502 22.612a1.725 1.725 0 001.569 2.274h11.085a1.722 1.722 0 01-1.569-2.266l3.915-18.939z"></path><path fill="#fff" d="M18.24 14.215h.145a.267.267 0 00.261-.136l.371-.57h1.003l-.21.381h1.206l-.163.567h-1.424a.662.662 0 01-.606.356h-.744l.161-.598zm-.161.809h2.629l-.169.623h-1.052l-.163.598h1.028l-.169.623h-1.029l-.242.881c-.058.147.018.212.234.196h.835l-.158.573h-1.607c-.306 0-.412-.175-.316-.526l.308-1.134h-.657l.163-.613h.663l.163-.598h-.63l.161-.616.008-.007zm4.198-1.515l-.049.365c.278-.212.608-.341.955-.379h1.659l-.63 2.33c-.056.269-.283.404-.68.404h-1.894l-.436 1.624c-.025.092.007.139.104.139h.374l-.138.503h-.949c-.359 0-.511-.11-.452-.326l1.247-4.66h.889zm1.408.655h-1.487l-.182.632c.2-.123.432-.188.667-.185h.888l.114-.447zm-.543 1.458c.116.016.179-.025.179-.132l.098-.32h-1.49l-.128.459 1.341-.007zm-1.004.753h.86l-.018.379h.237c.112 0 .16-.04.16-.113l.081-.243h.706l-.091.356a.612.612 0 01-.646.461h-.455v.648c-.005.098.082.146.271.146h.427l-.138.509h-1.029c-.292.016-.427-.122-.427-.42l.062-1.723zm-10.394-5.964a2.137 2.137 0 01-.81 1.329 2.62 2.62 0 01-1.603.467 1.758 1.758 0 01-1.359-.477 1.237 1.237 0 01-.298-.857c0-.157.017-.31.048-.462l.703-3.397h1.054l-.688 3.357a.99.99 0 00-.033.259.656.656 0 00.13.421.718.718 0 00.605.243c.291.012.576-.071.81-.243.213-.17.357-.411.405-.68l.678-3.357h1.055l-.697 3.397zm4.424-1.336h.826l-.646 3.028h-.826l.646-3.028zm.26-1.108h.832l-.159.738h-.826l.153-.729m1.301 3.9a1.136 1.136 0 01-.331-.85c-.001-.068.005-.134.008-.202l.032-.218c.076-.451.298-.865.633-1.172a1.657 1.657 0 011.155-.438c.329-.02.649.095.89.316.224.226.343.536.324.859a1.928 1.928 0 01-.016.21l-.039.225a2.017 2.017 0 01-.622 1.148 1.682 1.682 0 01-1.159.429c-.322.018-.64-.09-.881-.307m1.576-.601c.166-.209.273-.459.309-.724a.467.467 0 00.026-.155c.003-.047.004-.094.005-.138a.601.601 0 00-.138-.436.513.513 0 00-.404-.164.73.73 0 00-.567.243 1.539 1.539 0 00-.305.746l-.024.146c-.006.043-.009.09-.009.136a.596.596 0 00.138.437.507.507 0 00.403.145.72.72 0 00.566-.241m6.49 2.968l.202-.703h1.003l-.04.258c.274-.138.574-.227.882-.258h1.245l-.203.703h-.192l-.94 3.334h.193l-.185.663h-.193l-.081.293h-.971l.081-.293h-1.927l.188-.663h.193l.937-3.334h-.192zm1.086 0l-.245.915c.261-.1.531-.172.81-.22.081-.322.193-.688.193-.688l-.758-.007zm-.376 1.328l-.259.945a2.74 2.74 0 01.819-.266l.195-.679h-.755zm.189 2.006l.194-.679h-.753l-.195.679h.754zm2.434-4.085h.946l.042.355c0 .088.048.129.16.129h.163l-.163.598h-.702c-.259.017-.403-.078-.403-.307l-.043-.775zm-.275 1.284h3.067l-.187.64h-.97l-.161.6h.97l-.187.64h-1.083l-.244.37h.526l.13.753c.008.073.079.105.186.105h.162l-.162.624h-.591c-.299.015-.461-.083-.47-.309l-.145-.688-.484.729a.535.535 0 01-.527.293h-.89l.177-.625h.276a.364.364 0 00.29-.154l.761-1.098h-.97l.177-.649h1.053l.168-.591h-1.05l.178-.649v.009zM12.714 9.075h.746l-.084.439.099-.13c.226-.255.551-.395.89-.388a.802.802 0 01.67.274.93.93 0 01.113.769l-.404 2.072h-.768l.373-1.876a.607.607 0 00-.032-.43.36.36 0 00-.324-.139.704.704 0 00-.5.189.905.905 0 00-.277.508l-.339 1.748h-.762l.599-3.036zm8.536 0h.743l-.081.439.104-.13c.224-.249.542-.392.878-.388a.793.793 0 01.684.274c.147.23.188.51.107.769l-.405 2.072h-.768l.371-1.876a.607.607 0 00-.031-.43.372.372 0 00-.324-.139.714.714 0 00-.502.189.912.912 0 00-.267.508l-.347 1.748h-.763l.601-3.036zm3.68-1.884h2.161c.345-.022.686.078.964.284.223.207.343.503.322.809v.018c-.004.158-.02.318-.049.475a1.912 1.912 0 01-.654 1.133 1.86 1.86 0 01-1.214.42h-1.165l-.356 1.781h-1.004l.995-4.92zm.541 2.282h.965a.936.936 0 00.589-.168.913.913 0 00.292-.544l.024-.121v-.105a.417.417 0 00-.177-.381 1.07 1.07 0 00-.583-.12h-.809l-.301 1.439zm7.406 3.22c-.197.46-.466.887-.794 1.261-.336.405-.85.619-1.375.576l.065-.518c.72-.219 1.1-1.222 1.327-1.668l-.267-3.259.549-.01h.469l.049 2.049.865-2.049h.883l-1.771 3.618zm-2.462-3.364l-.347.24a1.092 1.092 0 00-1.343-.168c-.873.404-1.601 3.559.809 2.517l.139.159.944.034.624-2.863-.826.081zm-.534 1.552c-.162.454-.491.761-.759.673-.267-.083-.364-.519-.21-.974.153-.46.492-.758.761-.67.267.081.364.518.208.971"></path></svg>