<svg viewBox="0 0 199 199" id="store-location-icon" xmlns="http://www.w3.org/2000/svg"><g transform="translate(.5 .5)" fill="none" fill-rule="evenodd"><circle fill="#F8DBE0" cx="99" cy="99" r="99"></circle><path d="M131.024 127.636c.918 0 1.67.71 1.737 1.612l.005.13v30.487c0 2.82-2.235 5.12-5.03 5.222l-.196.004h-56.9a5.226 5.226 0 01-5.222-5.03l-.004-.196v-30.487a1.742 1.742 0 013.48-.13l.004.13v30.487c0 .918.711 1.67 1.612 1.737l.13.005 18.648-.001V139.23a1 1 0 011-1h17.423a1 1 0 011 1v22.376h18.829c.918 0 1.67-.71 1.737-1.611l.005-.13v-30.487c0-.962.78-1.742 1.742-1.742zm2.328-24.089a2 2 0 011.884 1.328l5.971 16.733a2 2 0 01-1.883 2.672H58.676a2 2 0 01-1.884-2.672l5.972-16.733a2 2 0 011.883-1.328h68.705zm-1.004-8.456a1 1 0 011 1v4.166a1 1 0 01-1 1H65.52a1 1 0 01-1-1V96.09a1 1 0 011-1h66.827zM99 32.909c10.936 0 19.8 8.865 19.8 19.8 0 4.112-1.252 7.93-3.397 11.096l-14.23 24.85a2.492 2.492 0 01-4.247.13l-.08-.13-14.13-24.678a19.71 19.71 0 01-3.517-11.267c0-10.936 8.865-19.8 19.801-19.8zm0 3.323c-9.1 0-16.478 7.378-16.478 16.478 0 3.27.952 6.391 2.71 9.056l.296.435 13.48 23.544 13.573-23.7.07-.105a16.383 16.383 0 002.827-9.23c0-9.1-7.378-16.478-16.478-16.478zm0 6.79c5.506 0 9.97 4.463 9.97 9.97 0 5.505-4.464 9.969-9.97 9.969s-9.97-4.464-9.97-9.97 4.464-9.97 9.97-9.97z" fill="#000" fill-rule="nonzero"></path></g></svg>