<svg viewBox="0 0 24 24" id="ar-icon" xmlns="http://www.w3.org/2000/svg"><path d="M19.72 6.05a.498.498 0 01.28.46V10a.5.5 0 11-1 0V7.309l-2.276 1.138a.5.5 0 11-.448-.894L18.382 6.5l-2.106-1.053a.5.5 0 01.448-.894l2.995 1.498zM20 16.49a.497.497 0 01-.28.46l-2.996 1.497a.5.5 0 01-.448-.894l2.106-1.053-2.106-1.053a.5.5 0 01.448-.894L19 15.69V13a.5.5 0 111 0v3.49zm-15.382.01l2.106 1.053a.5.5 0 11-.448.894L3.281 16.95A.498.498 0 013 16.49V13a.5.5 0 111 0v2.691l2.276-1.138a.5.5 0 01.448.894L4.618 16.5zM4 7.309V10a.5.5 0 11-1 0V6.51a.497.497 0 01.28-.46l2.996-1.497a.5.5 0 01.448.894L4.618 6.5l2.106 1.053a.5.5 0 01-.448.894L4 7.31zm7.267-5.252a.498.498 0 01.466 0l2.99 1.496a.5.5 0 01-.447.894L12 3.31V6a.5.5 0 11-1 0V3.309L8.724 4.447a.5.5 0 01-.448-.894l2.991-1.496zm.466 18.886a.498.498 0 01-.466 0l-2.99-1.496a.5.5 0 11.447-.894L11 19.69V17a.5.5 0 111 0v2.691l2.276-1.138a.5.5 0 01.448.894l-2.991 1.496zM12 10.809V13.5a.5.5 0 11-1 0v-2.691L8.276 9.447a.5.5 0 01.448-.894L11.5 9.94l2.776-1.388a.5.5 0 11.448.894L12 10.81z" fill="currentColor" fill-rule="evenodd"></path></svg>