<svg viewBox="0 0 24 24" id="call-icon" xmlns="http://www.w3.org/2000/svg"><path d="M2.251 2.123C3.457.86 5.243.595 6.22 1.67c.73.746 1.59 1.626 2.192 2.244C9.482 5.01 9.482 6.004 9 6.727c-.4.599-1.029 1.15-1.584 1.638-.26.229-.506.445-.702.642-.155.158-.124.515.09 1.004.5 1.147 1.966 2.948 3.733 4.59 1.78 1.655 3.43 2.724 4.202 2.724.124 0 .875-.638 1.175-.958.316-.337.52-.503.904-.825.512-.425 1.057-.64 1.618-.64 1.573 0 2.22.961 3.48 2.423.342.398 1.835 1.983.608 3.744C22.15 21.572 21.09 23 19.007 23c-3.512 0-7.127-1.534-11.046-5.162C4.015 14.186 1.413 9.781 1 6.057 1 5 1.045 3.384 2.251 2.123z" fill-rule="nonzero" stroke="#151415" stroke-width="2" fill="none"></path></svg>