<svg viewBox="0 0 48 28" id="hanger-icon" xmlns="http://www.w3.org/2000/svg"><path d="M24.027.368c3.082 0 5.58 2.437 5.58 5.442 0 1.932-1.434 3.531-4.116 4.883l-.276.134v1.705a1.17 1.17 0 01-1.049 1.15l-.139.008c-.608 0-1.11-.447-1.179-1.023l-.008-.135v-2.438c0-.457.275-.87.702-1.057 2.547-1.112 3.69-2.227 3.69-3.227 0-1.726-1.435-3.125-3.205-3.125s-3.204 1.4-3.204 3.125c0 .64-.532 1.158-1.188 1.158-.656 0-1.187-.518-1.187-1.158 0-3.005 2.498-5.442 5.58-5.442zm1.208 12.425l21.152 11.228c1.13.6 1.505 1.909.838 2.925-.427.651-1.205 1.05-2.045 1.05H2.875C1.563 27.997.5 27.04.5 25.86c0-.756.444-1.455 1.168-1.84L22.82 12.794a2.605 2.605 0 012.415 0zM45.18 25.86L24.027 14.632 2.875 25.86H45.18z" fill="currentColor" fill-rule="nonzero"></path></svg>