<svg version="1.0" viewBox="0 0 58 48" id="returns-icon" xmlns="http://www.w3.org/2000/svg"><path d="M1.1 4.4C.3 5.3 0 10.9.2 22.1l.3 16.4 2.4.3c1.4.2 3.3 1.5 4.4 2.8 2.6 3.4 8 3.3 10.3-.1 1.5-2.4 2.1-2.5 10.7-2.5 8.3 0 9.1.2 11.3 2.5 3 3.3 7.7 3.3 10.7.1 1.2-1.3 3.1-2.5 4.2-2.7 1.8-.4 2-1.3 2.3-8.2.3-7.4.1-8-3.5-14-2.1-3.4-4.2-6.5-4.8-6.9-.5-.4-3.6-.8-6.7-.8-4.4 0-5.8-.4-5.8-1.4 0-.8-.7-2.2-1.6-3-2.1-2.2-31.5-2.4-33.3-.2zm31.7 16.8l.3 14.8h-6.7c-5.9 0-6.8-.3-8.6-2.5-1.4-1.8-2.9-2.5-5.3-2.5C9.3 31 6 33.1 6 35.1c0 .5-.7.9-1.5.9C3.2 36 3 33.7 3 21V5.9l14.8.3 14.7.3.3 14.7zM47.5 13c.3.6-.4 1-1.7 1-4.2 0-4.9 1.3-4.6 7.6l.3 5.9 6.3.3 6.2.3V32c0 4.7-.5 4.9-3.6 1.5-3.1-3.3-7.7-3.3-10.8 0-1.3 1.4-2.6 2.5-3 2.5-.3 0-.6-5.4-.6-12V12h5.4c3 0 5.8.4 6.1 1zm4.5 7.2c1.1 1.8 2 3.6 2 4 0 .5-2.2.8-5 .8h-5v-4c0-3.8.2-4 3-4 2.3 0 3.5.7 5 3.2zM14.1 34c2.4 1.4 2.5 5.6.1 6.9-1.4.7-2.5.6-4-.5-2.6-1.8-2.7-3.1-.5-5.6 1.9-2.1 1.9-2.1 4.4-.8zm33.4.3c1.3 1 1.6 2.1 1.1 4-.5 2.1-1.2 2.7-3.5 2.7-4 0-5.4-3.5-2.5-6.4 1.9-1.9 2.5-2 4.9-.3z"></path></svg>