<svg viewBox="0 0 167 149" id="qr-code-scan-icon" xmlns="http://www.w3.org/2000/svg"><path d="M2.82 118.95l.164.005a2.5 2.5 0 012.33 2.33l.005.165v21.668h24.919l.164.005a2.5 2.5 0 010 4.99l-.164.005H2.819l-.164-.006a2.5 2.5 0 01-2.33-2.33l-.006-.164V121.45l.005-.164a2.5 2.5 0 012.495-2.336zm161.36 0a2.5 2.5 0 012.496 2.336l.005.164v24.168a2.5 2.5 0 01-2.336 2.494l-.164.006h-27.419a2.5 2.5 0 01-.164-4.995l.164-.005h24.92l-.001-21.668a2.5 2.5 0 012.335-2.495l.165-.005zM68.44 88.625v32.439H36v-32.44h32.439zm62.175-16.496v8h-4.634v10.427h-6.952v9.654h11.586v20.854h-25.102v-8h13.516v-12.081h-11.585V90.556h6.951V80.129h-8.882v-8h25.102zm-35.915 40.935v8H78.48v-8H94.7zm-34.26-16.44h-16.44v16.44h16.44v-16.44zm35.15-17.267v25.487h-9V79.357h9zm-43.37-8.441v8H36v-8h16.22zm16.22 0v8h-7.337v-8h7.337zm18.234-23.998l-.001 16.218 8.22.001v10.427h-16.22V46.918h8zM68.439 26.45v32.44H36V26.45h32.439zm62.175 0v32.44h-32.44V26.45h32.44zm-70.175 8h-16.44v16.44h16.44V34.45zm62.174 0h-16.439v16.44h16.439V34.45zm-34.672-8v8h-9.268v-8h9.268zM30.238.118a2.5 2.5 0 01.164 4.994l-.164.006-24.919-.001v21.668a2.5 2.5 0 01-2.335 2.495l-.165.005A2.5 2.5 0 01.324 26.95l-.005-.165V2.618A2.5 2.5 0 012.655.123l.164-.005h27.419zm133.943 0l.164.005a2.5 2.5 0 012.33 2.33l.006.165v24.167l-.005.165a2.5 2.5 0 01-2.33 2.33l-.165.005-.165-.005a2.5 2.5 0 01-2.33-2.33l-.005-.165V5.117h-24.919l-.164-.005a2.5 2.5 0 010-4.989l.164-.005h27.419z" fill="#000" fill-rule="nonzero"></path></svg>