<svg version="1.1" id="edit-myfit-icon" x="0" y="0" viewBox="0 0 28 28" xml:space="preserve" xmlns="http://www.w3.org/2000/svg"><style>.best0,.best1{fill:none;stroke:#000;stroke-width:1.5}.best1{stroke-linecap:square}</style><g id="beFinal"><g id="beIcons" transform="translate(-29 -24)"><g id="beEdit-My-Fit-CTA" transform="translate(16.163 17.913)"><g id="beGroup-3" transform="translate(13.837 9.587)"><g id="beGroup" transform="translate(0 .18)"><path id="beShape" d="M3.1 1.8C1.4 1.8 0 3.2 0 4.9v14.5c0 1.7 1.4 3.1 3.1 3.1h14.5c1.7 0 3.1-1.4 3.1-3.1v-9.1c0-.5-.4-1-.9-1s-1 .5-.9 1v9.1c0 .7-.5 1.3-1.3 1.3H3.1c-.7 0-1.3-.5-1.3-1.3V4.9c0-.7.5-1.3 1.3-1.3h10.4c.5 0 1-.4 1-.9s-.5-1-1-.9H3.1z"></path><g id="beGroup-7" transform="rotate(-45 19.902 -1.215)"><path id="beRectangle" class="best0" d="M20.9-.3c.5 0 1 .2 1.4.6.4.4.6.8.6 1.4v.7c0 .5-.2 1-.6 1.4-.4.4-.8.6-1.4.6H5.3c-1.1-.1-2.2-.4-3.2-.9l-2-1.1L2 .6C3 0 4.1-.3 5.3-.3h15.6z"></path><path id="beLine-3" class="best1" d="M19.5.2v3.4"></path></g></g></g></g></g></g></svg>