<svg viewBox="0 0 40 42" id="diners-icon" xmlns="http://www.w3.org/2000/svg"><g fill="none"><path d="M38.549 7.694H1.45C.653 7.694 0 8.332 0 9.127v22.78c0 .795.653 1.434 1.451 1.434H38.55c.798 0 1.451-.638 1.451-1.433V9.127c0-.795-.653-1.433-1.451-1.433h-.001zm0 .9c.314 0 .562.242.562.533v22.78a.548.548 0 01-.562.534H1.45a.55.55 0 01-.562-.534V9.127c0-.291.248-.533.562-.533h37.1-.001z" fill="#CCC"></path><g fill="#1a1918"><path d="M7.273 22.696c0-.476-.255-.442-.494-.451v-.136h1.55a1.94 1.94 0 012.128 1.873c0 .519-.307 1.847-2.188 1.847h-1.49v-.136c.324-.035.477-.043.494-.41zm.52 2.503c0 .417.297.46.552.46a1.49 1.49 0 001.533-1.66 1.6 1.6 0 00-1.669-1.72c-.221 0-.315.017-.417.017zm2.86.494h.101c.145 0 .256 0 .256-.17v-1.448c0-.238-.085-.272-.281-.374v-.085l.57-.196a.187.187 0 01.094-.026c.025 0 .042.034.042.077v2.043c0 .179.111.179.256.179h.093v.136h-1.132zm.57-3.124a.26.26 0 010-.52.255.255 0 01.255.256.264.264 0 01-.255.264zm1.072 1.532c0-.196-.06-.256-.306-.35v-.101a7.184 7.184 0 00.698-.256c.017 0 .034.009.034.051v.34a1.558 1.558 0 01.92-.39c.45 0 .612.331.612.748v1.37c0 .18.12.18.264.18h.102v.136h-1.14v-.136h.093c.153 0 .255 0 .255-.17v-1.388c0-.307-.187-.451-.485-.451a1.413 1.413 0 00-.621.255v1.575c0 .179.119.179.264.179h.102v.136h-1.14v-.136h.084c.154 0 .256 0 .256-.17V24.1m2.732.255a1.32 1.32 0 000 .315.894.894 0 00.783.92 1.021 1.021 0 00.724-.358l.068.076a1.251 1.251 0 01-.979.596 1.073 1.073 0 01-1.022-1.157c0-1.047.707-1.362 1.082-1.362a.851.851 0 01.893.85.63.63 0 010 .086l-.05.034zm.945-.17c.136 0 .153-.068.153-.136a.451.451 0 00-.468-.486c-.323 0-.545.239-.613.622zm.732 1.507h.145c.144 0 .255 0 .255-.17v-1.507c0-.17-.196-.196-.28-.239v-.085c.39-.162.595-.298.655-.298.025 0 .042.017.042.068v.477h.009c.136-.204.357-.545.68-.545a.29.29 0 01.307.281.255.255 0 01-.255.273c-.162 0-.162-.128-.34-.128a.451.451 0 00-.392.442v1.252c0 .179.102.179.255.179h.298v.136h-.75a22.132 22.132 0 00-.629 0zm2.051-.596a.707.707 0 00.664.647.375.375 0 00.435-.383c0-.63-1.158-.426-1.158-1.277a.732.732 0 01.826-.69 1.396 1.396 0 01.604.153l.034.545h-.12a.545.545 0 00-.578-.528.375.375 0 00-.417.35c0 .63 1.234.434 1.234 1.276 0 .34-.28.724-.91.724a1.396 1.396 0 01-.656-.187l-.06-.613.102-.026m6.334-2.017h-.128a1.021 1.021 0 00-1.14-.869 1.524 1.524 0 00-1.507 1.703 1.737 1.737 0 001.591 1.847 1.081 1.081 0 001.064-.928l.128.034-.128.775a2.98 2.98 0 01-1.174.29 1.898 1.898 0 01-2.035-2.018 1.958 1.958 0 012.018-1.873 3.83 3.83 0 011.26.281l.05.766m.188 2.614h.11c.145 0 .256 0 .256-.17v-2.98c0-.34-.085-.358-.29-.417v-.085a3.37 3.37 0 00.554-.23.562.562 0 01.119-.06c.025 0 .043.034.043.085v3.678c0 .179.11.179.255.179h.102v.136h-1.15zm3.422-.154c0 .094.06.102.153.102h.213v.103a5.388 5.388 0 00-.766.17l-.026-.017v-.426a1.439 1.439 0 01-.945.443.579.579 0 01-.587-.639v-1.362c0-.144-.017-.272-.315-.297v-.103l.681-.042c.06 0 .06.042.06.153v1.379c0 .162 0 .621.468.621a1.192 1.192 0 00.638-.323v-1.447c0-.102-.255-.153-.442-.213v-.094c.476-.034.774-.076.825-.076.043 0 .043.042.043.093zm1.064-1.762a1.345 1.345 0 01.791-.383 1.038 1.038 0 01.988 1.115 1.345 1.345 0 01-1.277 1.405 1.566 1.566 0 01-.732-.187l-.162.119-.11-.06a6.274 6.274 0 00.076-.945v-2.298c0-.34-.085-.358-.28-.417v-.085a3.345 3.345 0 00.544-.23.57.57 0 01.12-.06c.033 0 .042.034.042.085zm0 1.447a.57.57 0 00.545.545c.57 0 .808-.553.808-1.03a1.021 1.021 0 00-.85-1.055.817.817 0 00-.512.255v1.285zM6.779 28.936h.034c.11 0 .222-.017.222-.17V27.25c0-.153-.111-.17-.222-.17H6.78v-.085l.426.008.46-.008v.085h-.043c-.102 0-.213.017-.213.17v1.524c0 .145.11.162.213.162h.043v.085l-.46-.009-.426.009z"></path><path d="M7.665 29.038l-.46-.026-.426.017h-.017v-.119h.051c.11 0 .205 0 .205-.145v-1.532c0-.136-.094-.144-.205-.144h-.05v-.111h.91v.11h-.051c-.11 0-.204.009-.204.154v1.523c0 .137.093.145.204.145h.051v.12zm-.018-.026v-.068h-.025c-.102 0-.23-.017-.23-.17v-1.532c0-.153.128-.17.23-.17h.025v-.06h-.85v.06h.025c.11 0 .23.017.23.17v1.532c0 .153-.12.17-.23.17h-.026v.068l.417-.017.443.017zm2-.562h.01v-1.098a.238.238 0 00-.256-.272H9.35v-.085l.409.008.357-.008v.085h-.051c-.12 0-.255.026-.255.375v1.319a1.932 1.932 0 00.017.29h-.111l-1.498-1.669v1.2c0 .256.05.34.272.34h.051v.086l-.383-.009-.4.009v-.085h.043c.204 0 .255-.137.255-.366v-1.226a.255.255 0 00-.255-.255h-.043v-.094l.34.008.256-.008 1.285 1.455"></path><path d="M9.818 29.08h-.12L8.227 27.43v1.166c0 .256.043.324.256.324h.068v.119H8.54l-.383-.026-.4.017H7.75v-.119h.05c.196 0 .256-.119.256-.349v-1.226a.255.255 0 00-.255-.255H7.75v-.102h.613l1.276 1.438v-1.072c0-.23-.161-.255-.247-.255h-.076v-.111h.8v.11h-.06c-.119 0-.238.009-.238.358v1.32a1.932 1.932 0 00.017.289v.017zm-.11-.025H9.8a1.958 1.958 0 01-.008-.281v-1.32c0-.348.144-.382.263-.382h.034v-.06h-.74v.06H9.4a.255.255 0 01.272.28v1.107h-.017v.009l-1.293-1.456h-.58v.06h.026a.272.272 0 01.273.272v1.226c0 .23-.06.374-.273.383h-.025v.06l.383-.018.357.017v-.06H8.5c-.23 0-.29-.101-.29-.357V27.37l1.507 1.686zm-.06-.605l.008-.008v.008zm0 0v-.008zm.894-1.31c-.222 0-.23.05-.273.263h-.085l.034-.246a1.737 1.737 0 00.017-.247h.068c.026.085.094.085.17.085h1.499c.085 0 .153 0 .153-.085h.077l-.035.238v.238l-.093.035c0-.111-.017-.281-.213-.281h-.477v1.549c0 .221.103.247.239.247h.06v.085l-.477-.009-.486.009v-.085h.051c.162 0 .239-.017.239-.247v-1.55z"></path><path d="M11.682 29.038l-.476-.017-.486.017h-.017v-.12h.068c.162 0 .222 0 .23-.23v-1.531h-.46v-.026h.486v1.558c0 .238-.094.255-.256.255h-.042v.068l.477-.017.46.017v-.06h-.043c-.136 0-.256-.042-.256-.263V27.13h.494c.196 0 .221.17.221.272l.068-.025a3.37 3.37 0 01.035-.451h-.043c-.017.085-.094.085-.17.085h-1.507c-.068 0-.145 0-.17-.085h-.051a1.737 1.737 0 01-.017.23c0 .085-.017.161-.034.238h.068c.034-.204.06-.272.28-.264v.026c-.22 0-.212.034-.255.255h-.119v-.009l.034-.255a1.643 1.643 0 00.017-.238V26.9h.094c.025.085.076.085.153.085h1.507c.085 0 .136 0 .144-.085v-.008h.017l.086.017-.009.008-.034.239v.238h-.009l-.102.043v-.017c-.008-.111-.025-.264-.204-.264h-.468v1.532c0 .213.094.23.23.23h.068v.119zm.605-.102h.042c.102 0 .213-.017.213-.17V27.25c0-.153-.11-.17-.213-.17h-.042v-.085l.723.008.74-.008.01.443-.086.025c-.017-.187-.05-.34-.357-.34h-.4v.766h.34c.17 0 .213-.102.23-.256h.085v.664l-.085.017c-.017-.17-.026-.28-.221-.28h-.34v.672c0 .187.16.187.34.187.349 0 .51-.025.595-.349l.086.017a6.554 6.554 0 00-.103.46l-.783-.009-.766.009v-.085"></path><path d="M13.844 29.038l-.783-.017-.766.017h-.017v-.12h.051c.11 0 .205 0 .205-.144v-1.532c0-.136-.094-.145-.205-.145h-.05v-.11h1.489v.008a3.558 3.558 0 000 .443v.008l-.11.034v-.017c-.018-.187-.043-.323-.341-.323h-.392v.732h.34c.17 0 .196-.085.213-.247v-.009h.111v.009a6.878 6.878 0 000 .68h-.008l-.103.026v-.017c-.017-.17-.025-.272-.212-.272h-.34v.664c0 .17.152.17.34.17.357 0 .493-.017.578-.34v-.009h.017l.086.026v.008a6.64 6.64 0 00-.094.46v.017zm-.017-.026l.094-.442-.051-.017c-.085.332-.255.357-.596.357-.187 0-.366 0-.374-.204v-.681h.366c.204-.009.22.11.238.28l.06-.016a6.171 6.171 0 010-.647h-.06c-.017.153-.068.255-.247.255H12.9v-.783h.425c.298 0 .34.153.358.34l.06-.025a4.903 4.903 0 010-.426l-.733.017-.706-.008v.06h.025c.102 0 .23.017.23.17v1.532c0 .153-.128.17-.23.17h-.025v.068l.757-.017zm.503-1.702c0-.221-.12-.23-.205-.23h-.05v-.085l.45.008.46-.008c.366 0 .69.102.69.51a.545.545 0 01-.4.511l.493.74a.323.323 0 00.281.18v.085l-.28-.009-.273.009a8.044 8.044 0 01-.596-.937h-.196v.622c0 .221.102.23.238.23h.052v.085l-.503-.009-.425.009v-.085h.06c.11 0 .204-.051.204-.154v-1.48zm.374.664h.136c.29 0 .451-.11.451-.451a.4.4 0 00-.425-.426 1.405 1.405 0 00-.17.017v.86z"></path><path d="M16.05 29.038l-.282-.017c-.085 0-.179.017-.28.008a8.12 8.12 0 01-.597-.936h-.17v.613c0 .213.085.213.221.213h.06v.119h-.008l-.503-.017-.425.017v-.12h.05c.103 0 .188-.042.197-.136v-1.48c0-.205-.111-.205-.196-.205h-.068v-.11h.928c.366 0 .706.093.706.519a.553.553 0 01-.4.51l.485.74a.315.315 0 00.273.171h.017v.11zm-1.346-.97h.196a8.98 8.98 0 00.596.936h.545v-.06a.332.332 0 01-.281-.17l-.511-.766h.017a.536.536 0 00.4-.502c0-.4-.315-.494-.68-.494h-.903v.06h.042c.085 0 .222.017.222.23v1.48c0 .111-.111.17-.222.17h-.042v.06l.408-.017.486.017v-.06h-.035c-.136 0-.255-.016-.255-.255v-.63zm0-.086h-.017v-.885h.009a1.388 1.388 0 01.17-.008.409.409 0 01.434.434c0 .34-.17.468-.46.468zm.136-.017c.29 0 .434-.102.434-.442a.383.383 0 00-.408-.409 1.132 1.132 0 00-.153.009v.842zm3.175.485h.009v-1.098a.238.238 0 00-.255-.272h-.06v-.085l.409.008.357-.008v.085h-.051c-.12 0-.255.026-.255.375v1.319a1.932 1.932 0 00.017.29h-.111l-1.49-1.669v1.2c0 .256.051.34.273.34h.05v.086l-.374-.009-.4.009v-.085h.043c.204 0 .255-.137.255-.366v-1.226a.255.255 0 00-.255-.255h-.043v-.094l.34.008.256-.008z"></path><path d="M18.186 29.08h-.12l-1.472-1.651v1.166c0 .256.042.324.255.324h.068v.119h-.008l-.375-.017-.4.017h-.008v-.12h.05c.197 0 .256-.119.256-.348v-1.226a.255.255 0 00-.255-.255h-.051v-.103h.604l1.277 1.439v-1.073c0-.23-.153-.255-.238-.255h-.077v-.11h.792v.11h-.06c-.12 0-.238.009-.238.358v1.319a1.83 1.83 0 00.017.29v.016zm-.111-.025h.094a1.992 1.992 0 01-.009-.281v-1.32c0-.348.145-.382.264-.382h.034v-.06h-.74v.06h.05a.255.255 0 01.273.28v1.107h-.017v.009l-1.294-1.456h-.579v.06h.026a.272.272 0 01.272.272v1.226c0 .23-.06.374-.272.383h-.026v.06l.383-.018.358.017v-.06h-.034c-.23 0-.29-.101-.29-.357V27.37zm-.06-.605l.009-.008v.008zm0 0v-.008zm.92.154a1.175 1.175 0 00-.06.23c0 .085.12.102.213.102h.034v.085a6.571 6.571 0 00-.664 0v-.085h.017a.255.255 0 00.255-.188l.46-1.336a2.443 2.443 0 00.11-.358 1.473 1.473 0 00.256-.127.068.068 0 01.034 0 .017.017 0 01.017 0l.026.085.536 1.515.102.29a.187.187 0 00.196.119h.017v.085a8.223 8.223 0 00-.834 0v-.085h.025c.068 0 .188-.009.188-.085a.936.936 0 00-.06-.213l-.12-.34h-.655l-.085.306zm.425-1.277l-.272.817h.536l-.264-.826z"></path><path d="M20.484 29.038l-.409-.026-.434.017h-.017v-.119h.043c.068 0 .17-.008.17-.068a.936.936 0 00-.06-.204l-.11-.332h-.639l-.085.298a1.2 1.2 0 00-.068.221c0 .068.11.085.204.085h.052v.12h-.017l-.35-.018-.314.017h-.009v-.119h.026a.255.255 0 00.238-.17l.468-1.337a3.447 3.447 0 00.11-.374 1.49 1.49 0 00.265-.12.077.077 0 01.025-.008.034.034 0 01.034.017l.026.077.536 1.515c.034.102.068.213.11.298a.17.17 0 00.17.102h.035v.12h-.009zm-.834-.026l.425-.017.383.017v-.06a.196.196 0 01-.204-.127c-.042-.085-.076-.196-.11-.298l-.528-1.515-.026-.077h-.017a.068.068 0 00-.008 0 1.073 1.073 0 01-.256.12 2.409 2.409 0 01-.11.366l-.469 1.327a.272.272 0 01-.255.205h-.008v.06l.298-.018.34.017v-.06h-.026c-.085 0-.22-.016-.23-.118a1.15 1.15 0 01.069-.23h.008-.008l.093-.307h.681l.111.34a.885.885 0 01.06.214c0 .085-.128.093-.196.102h-.017zm-.596-.85l.28-.852h.026l.273.851zm.042-.035h.511l-.255-.775zm.239-.8h.008zm1.277-.187c-.222 0-.23.05-.273.263h-.085l.034-.246a1.788 1.788 0 00.017-.247h.068c.026.085.094.085.17.085h1.499c.085 0 .153 0 .161-.085h.069l-.034.238v.238l-.086.035c-.017-.111-.025-.281-.22-.281h-.478v1.549c0 .221.103.247.239.247h.06v.085l-.486-.009-.485.009v-.085h.051c.162 0 .247-.017.247-.247v-1.55h-.477"></path><path d="M21.752 29.038l-.485-.026-.485.017h-.017v-.119h.068c.162 0 .23 0 .23-.23v-1.532h-.46v-.025h.485v1.557c0 .239-.093.256-.255.256h-.043v.076l.477-.017.46.017v-.06h-.043c-.136 0-.255-.042-.255-.263V27.13h.494c.195 0 .22.17.22.272l.069-.025v-.23l.034-.221h-.043c-.017.085-.093.085-.17.085h-1.506c-.069 0-.145 0-.17-.085h-.052a1.702 1.702 0 01-.017.23c0 .085-.017.161-.034.238h.068c.034-.204.06-.272.281-.264v.026c-.221 0-.213.034-.255.255h-.12v-.009l.035-.246a1.685 1.685 0 00.017-.247V26.9h.093c.026.085.085.085.154.085h1.506c.085 0 .145 0 .145-.085v-.008h.017l.085.017v.008l-.042.239v.238h-.009l-.102.043v-.017c-.009-.111-.026-.264-.204-.264h-.46v1.532c0 .213.085.23.221.23h.068v.119h-.008m.63-.102h.042c.102 0 .213-.017.213-.17V27.25c0-.153-.11-.17-.213-.17h-.042v-.085l.425.008.46-.008v.085h-.043c-.102 0-.212.017-.212.17v1.524c0 .145.11.162.212.162h.043v.085l-.46-.009-.425.009z"></path><path d="M23.259 29.038l-.46-.026-.425.017h-.009v-.119h.051c.102 0 .205 0 .205-.145v-1.532c0-.136-.103-.144-.205-.144h-.05v-.111h.91v.11h-.06c-.102 0-.195.009-.195.154v1.523c0 .137.085.145.195.145h.06v.12zm-.009-.026v-.06h-.034c-.102 0-.22-.025-.22-.178v-1.532c0-.153.118-.17.22-.17h.034v-.06h-.876v.06h.034c.102 0 .23.017.23.17v1.532c0 .153-.128.17-.23.17h-.026v.068l.409-.017.451.017zm1.167-2.06a1.021 1.021 0 011.106 1.005 1.064 1.064 0 01-1.09 1.106 1.021 1.021 0 01-1.089-1.038 1.056 1.056 0 011.073-1.073m.042 1.984c.562 0 .664-.494.664-.92s-.23-.936-.715-.936c-.51 0-.655.451-.655.843 0 .51.238 1.021.706 1.021"></path><path d="M23.336 28.025a1.073 1.073 0 011.08-1.09v.026a1.047 1.047 0 00-1.055 1.064 1.013 1.013 0 001.073 1.021 1.056 1.056 0 001.08-1.09 1.004 1.004 0 00-1.106-.995v-.026a1.03 1.03 0 011.132 1.022 1.081 1.081 0 01-1.106 1.123 1.038 1.038 0 01-1.107-1.055m.409-.102c0-.392.153-.851.68-.851.486 0 .716.519.716.944s-.102.937-.673.937v-.026c.554 0 .647-.485.647-.91s-.221-.92-.698-.928c-.494 0-.638.442-.647.834 0 .51.239 1.004.698 1.004v.026c-.476 0-.715-.511-.723-1.03m3.745.527v-1.098a.238.238 0 00-.255-.272h-.06v-.085l.409.008.357-.008v.085h-.042c-.128 0-.256.026-.256.375v1.319a1.873 1.873 0 00.009.29h-.102l-1.507-1.669v1.2c0 .256.051.34.272.34h.051v.086l-.374-.009-.392.009v-.085h.043c.196 0 .255-.137.255-.366v-1.226a.255.255 0 00-.255-.255h-.043v-.094l.332.008.256-.008 1.294 1.455"></path><path d="M27.651 29.08h-.127L26.06 27.43v1.166c0 .256.042.324.255.324h.06v.119h-.009l-.375-.017-.391.017h-.017v-.12h.06c.187 0 .238-.119.246-.348v-1.226a.255.255 0 00-.255-.255h-.051v-.103h.613l1.277 1.439v-1.073c0-.23-.154-.255-.239-.255h-.085v-.11h.8v.11h-.05c-.12 0-.248.009-.256.358v1.319a1.924 1.924 0 00.025.29v.016zm-.11-.025h.085a2.06 2.06 0 01-.009-.281v-1.32c0-.348.145-.382.273-.382h.025v-.06h-.732v.06h.051a.255.255 0 01.256.28v1.107l-.009.009-1.294-1.456h-.579v.06h.026a.272.272 0 01.28.272v1.226c0 .23-.067.374-.272.383h-.034v.06l.383-.018.366.017v-.06h-.042c-.23 0-.281-.101-.281-.357V27.37zm-.06-.605v-.008zm-.008 0v-.008zm.927.154a1.217 1.217 0 00-.068.23c0 .085.12.102.222.102h.025v.085a6.563 6.563 0 00-.664 0v-.085h.017a.255.255 0 00.256-.188l.468-1.336a2.375 2.375 0 00.102-.358 1.49 1.49 0 00.264-.127.06.06 0 01.025 0 .017.017 0 01.017 0l.026.085.536 1.515c.034.094.068.204.11.29a.187.187 0 00.188.119h.017v.085a8.223 8.223 0 00-.834 0v-.085h.034c.068 0 .17-.009.17-.085a.936.936 0 00-.05-.213l-.112-.34h-.663zm.426-1.277h-.009l-.272.817h.545l-.273-.826z"></path><path d="M29.941 29.038l-.4-.017-.426.017h-.017v-.12h.043c.068 0 .17-.008.17-.067a.902.902 0 00-.06-.205l-.11-.332h-.647l-.085.298a1.226 1.226 0 00-.06.222c0 .068.102.085.205.085h.034v.119h-.017l-.34-.017-.324.017h-.009v-.12h.026a.255.255 0 00.247-.17l.46-1.336a3.635 3.635 0 00.118-.375 1.575 1.575 0 00.256-.119.068.068 0 01.034 0 .034.034 0 01.034.009l.025.076.528 1.516c.034.102.068.212.11.298a.17.17 0 00.171.102h.034v.119h-.008zm-.826-.026l.426-.017.392.017v-.068h-.009a.196.196 0 01-.204-.119l-.102-.298-.537-1.515a3.073 3.073 0 01-.025-.077h-.009a.051.051 0 00-.017 0 1.107 1.107 0 01-.255.12 2.503 2.503 0 01-.11.366l-.469 1.327a.272.272 0 01-.255.205h-.009v.06l.298-.018.34.017v-.06h-.016c-.094 0-.23-.016-.23-.118a1.209 1.209 0 01.06-.23h.016-.017l.094-.307h.681l.11.34a.91.91 0 01.06.214c0 .085-.127.093-.187.102h-.026zm-.595-.85l.289-.852h.017l.28.851zm.042-.035h.51l-.255-.775zm2.111.613c0 .11.085.153.17.162a2.103 2.103 0 00.383 0 .409.409 0 00.281-.17.664.664 0 00.085-.205h.086l-.103.494-.766-.009-.766.009v-.085h.043c.102 0 .213-.017.213-.196v-1.49c0-.153-.111-.17-.213-.17h-.043v-.085l.46.008.434-.008v.085h-.068c-.11 0-.196 0-.196.162z"></path><path d="M31.567 29.038l-.766-.017-.766.017v-.12h.05c.103 0 .205 0 .205-.17V27.25c0-.144-.102-.153-.204-.153h-.06v-.11h.928v.11h-.085c-.11 0-.179 0-.187.145v1.498c0 .11.076.136.17.145l.153.008a2.094 2.094 0 00.221-.008.409.409 0 00.273-.154.655.655 0 00.085-.204v-.008h.11v.017l-.11.493zm0-.026l.094-.468h-.06a.655.655 0 01-.085.204.426.426 0 01-.29.162 2.213 2.213 0 01-.22.009h-.163c-.093-.017-.187-.06-.187-.18v-1.497c0-.17.102-.17.213-.17h.06v-.06h-.877v.06h.034c.102 0 .23.017.23.17v1.498c0 .187-.128.204-.23.204h-.034v.068l.757-.017.75.017zm.085-2.102a.306.306 0 11-.315.306.298.298 0 01.307-.306zm0 .562a.255.255 0 10-.255-.256.247.247 0 00.255.256zm-.162-.086v-.017c.043-.008.043 0 .043-.034v-.22c0-.035 0-.043-.043-.043v-.018h.162c.051 0 .102.026.102.086a.094.094 0 01-.076.085l.05.076a.323.323 0 00.069.068v.009h-.06c-.025 0-.05-.06-.11-.136h-.035v.102c0 .017.009.017.052.025v.009zm.102-.17h.043c.034 0 .051-.025.051-.076s-.025-.068-.06-.068h-.034z"></path></g><path fill="#fff" d="M13.33 15.58a5.77 5.77 0 115.76 5.78 5.77 5.77 0 01-5.76-5.78"></path><path fill="#154a78" d="M21.42 16.644a2.96 2.96 0 00-1.898-2.758v5.516a2.96 2.96 0 001.898-2.758zm-4 2.758v-5.516c-2.124.814-2.569 3.621-.803 5.053.242.195.512.352.803.463zm1.038-7.414c-3.591-.007-5.842 3.876-4.052 6.989 1.789 3.114 6.278 3.122 8.079.015a4.667 4.667 0 00.629-2.34 4.655 4.655 0 00-4.647-4.664h-.009zm0 9.772a5.1 5.1 0 01-5.133-5.056 5.022 5.022 0 015.133-5.142h1.319a5.193 5.193 0 015.312 5.133 5.294 5.294 0 01-5.312 5.056l-1.319.009z"></path></g></svg>