<svg viewBox="0 0 25 22" id="language-icon" xmlns="http://www.w3.org/2000/svg"><path d="M18.75 6v1.75h5.154v1.5l-2.06.001c-.682 2.33-1.637 4.428-2.863 6.292a19.322 19.322 0 004.721 4.54l.433.287-.815 1.26-.402-.267a20.891 20.891 0 01-4.851-4.54 20.84 20.84 0 01-4.85 4.54l-.402.267L12 20.37c2.045-1.324 3.762-2.932 5.155-4.827-1.227-1.864-2.182-3.962-2.865-6.292L12 9.25v-1.5h5.25V6h1.5zM5.721.712l1.4.038 4.586 13-1.414.5-1.059-3H2.957l-1.265 3.038-1.384-.576 5.413-13zM20.278 9.25h-4.42c.561 1.8 1.297 3.443 2.209 4.931.913-1.488 1.65-3.131 2.21-4.931zM6.355 3.089L3.581 9.75h5.123L6.355 3.089z" fill="#000" fill-rule="nonzero"></path></svg>