<?xml version="1.0" encoding="UTF-8"?>
<svg width="24px" height="24px" viewBox="0 0 24 24" version="1.1" xmlns="http://www.w3.org/2000/svg" xmlns:xlink="http://www.w3.org/1999/xlink">
    <!-- Generator: sketchtool 62 (101010) - https://sketch.com -->
    <title>03BA0388-9C58-4D33-9DB6-4012681292F1</title>
    <desc>Created with sketchtool.</desc>
    <defs>
        <path d="M11.9116497,2.16231317 C14.9606789,2.16231317 15.3227406,2.17572287 16.5245844,2.23271407 C19.6205476,2.3802207 21.0637659,3.92401173 21.2045677,7.15239559 C21.2598827,8.41625925 21.2699399,8.79675932 21.2699399,12.0016762 C21.2699399,15.2065931 21.2582065,15.5837407 21.2045677,16.8492806 C21.0620897,20.0743121 19.6205476,21.6214555 16.5245844,21.7689621 C15.3227406,21.8276296 14.9623551,21.839363 11.9116497,21.839363 C8.8659729,21.839363 8.50391116,21.8276296 7.30039112,21.7689621 C4.20107557,21.6197793 2.76288588,20.0709596 2.6237603,16.8492806 C2.56844531,15.5837407 2.55671183,15.2049169 2.55671183,12 C2.55671183,8.79508311 2.56844531,8.41625925 2.6237603,7.15071937 C2.76456209,3.92401173 4.2061042,2.3802207 7.30039112,2.23271407 C8.50558737,2.17572287 8.8659729,2.16231317 11.9116497,2.16231317 Z M11.9116497,0 C8.81401034,0 8.42680542,0.0134096941 7.20819947,0.0720771057 C3.06460399,0.271546305 0.759812823,2.69031988 0.570400894,7.05182288 C0.515085906,8.33244867 0.5,8.74144434 0.5,12 C0.5,15.2585557 0.515085906,15.6675513 0.568724682,16.9481771 C0.758136611,21.3063277 3.05957536,23.7284537 7.20819947,23.9279229 C8.42680542,23.9849141 8.81401034,24 11.9116497,24 C15.0126414,24 15.4031988,23.9849141 16.6184523,23.9279229 C20.7603716,23.7284537 23.0701914,21.3096801 23.2579271,16.9481771 C23.3132421,15.6675513 23.328328,15.2585557 23.328328,12 C23.328328,8.74144434 23.3132421,8.33244867 23.2579271,7.05349909 C23.0718676,2.69870094 20.7687526,0.273222517 16.6201285,0.0720771057 C15.4031988,0.0134096941 15.0126414,0 11.9116497,0 Z M11.9116497,5.83824557 C8.67656097,5.83824557 6.05161335,8.59729012 6.05161335,12 C6.05161335,15.4027099 8.67656097,18.1634306 11.9116497,18.1634306 C15.1500908,18.1634306 17.7733622,15.4043861 17.7733622,12 C17.7733622,8.59729012 15.1500908,5.83824557 11.9116497,5.83824557 Z M11.9116497,15.9994413 C9.81135633,15.9994413 8.1100014,14.2092471 8.1100014,12 C8.1100014,9.7907529 9.81135633,8.00055874 11.9116497,8.00055874 C14.0136192,8.00055874 15.7183266,9.7907529 15.7183266,12 C15.7183266,14.2092471 14.0136192,15.9994413 11.9116497,15.9994413 Z M18.0063556,4.15532896 C17.2487079,4.15532896 16.6368906,4.80067048 16.6368906,5.59519486 C16.6368906,6.38971923 17.2487079,7.03506076 18.0063556,7.03506076 C18.7623271,7.03506076 19.3758206,6.38971923 19.3758206,5.59519486 C19.3758206,4.80067048 18.7623271,4.15532896 18.0063556,4.15532896 Z" id="path-1"></path>
    </defs>
    <g id="Asset-Artboard-Page" stroke="none" stroke-width="1" fill="none" fill-rule="evenodd">
        <g id="Icon/account-Icon/social/instagram">
            <mask id="mask-2" fill="white">
                <use xlink:href="#path-1"></use>
            </mask>
            <use id="Mask" fill="#151415" xlink:href="#path-1"></use>
        </g>
    </g>
</svg>