<?xml version="1.0" encoding="UTF-8"?>
<svg width="24px" height="24px" viewBox="0 0 24 24" version="1.1" xmlns="http://www.w3.org/2000/svg" xmlns:xlink="http://www.w3.org/1999/xlink">
    <!-- Generator: sketchtool 62 (101010) - https://sketch.com -->
    <title>482742EE-D13B-4A84-B38B-AA5083774FAA</title>
    <desc>Created with sketchtool.</desc>
    <defs>
        <path d="M6.78804237,23.8473758 C6.80885579,24.0122821 7.00898482,24.0507069 7.10024366,23.9274274 C7.22832625,23.7513138 8.89660188,21.5835161 9.4633673,19.4157184 C9.62507156,18.8025231 10.3839609,15.6276761 10.3839609,15.6276761 C10.8402551,16.5418655 12.1691119,17.3439827 13.5828234,17.3439827 C17.7951393,17.3439827 20.6497798,13.3045782 20.6497798,7.89629119 C20.6497798,3.80725476 17.3580575,0 12.3596347,0 C6.13642223,0 3,4.69582767 3,8.61195262 C3,10.9814804 3.8533502,13.0916409 5.68012803,13.8793488 C5.98272313,14.0058304 6.25009552,13.8841519 6.33655127,13.5335258 C6.39899153,13.29177 6.53988237,12.6817767 6.60392366,12.4240105 C6.69198043,12.0797885 6.65835875,11.9597111 6.41820391,11.658717 C5.88826223,11.0038948 5.55044442,10.1553477 5.55044442,8.95457353 C5.55044442,5.47072729 8.02884238,2.35031538 11.9994024,2.35031538 C15.5152693,2.35031538 17.4477153,4.61417502 17.4477153,7.6337219 C17.4477153,11.609085 15.7762376,14.9632477 13.2994406,14.9632477 C11.9257549,14.9632477 10.8994933,13.7704786 11.2293059,12.3087361 C11.6215588,10.5620099 12.3868522,8.67759494 12.3868522,7.41758254 C12.3868522,6.28885479 11.8104806,5.34744781 10.6209136,5.34744781 C9.21840937,5.34744781 8.09128264,6.87323157 8.09128264,8.91614875 C8.09128264,10.217788 8.51235413,11.0983557 8.51235413,11.0983557 C8.51235413,11.0983557 7.07782921,17.4880756 6.82806818,18.6103992 C6.32854611,20.8406372 6.75281966,23.5735993 6.78804237,23.8473758" id="path-1"></path>
    </defs>
    <g id="Asset-Artboard-Page" stroke="none" stroke-width="1" fill="none" fill-rule="evenodd">
        <g id="Icon/account-Icon/social/pinterest">
            <mask id="mask-2" fill="white">
                <use xlink:href="#path-1"></use>
            </mask>
            <use id="Mask" fill="#151415" xlink:href="#path-1"></use>
        </g>
    </g>
</svg>