<?xml version="1.0" encoding="UTF-8"?>
<svg width="24px" height="24px" viewBox="0 0 24 24" version="1.1" xmlns="http://www.w3.org/2000/svg" xmlns:xlink="http://www.w3.org/1999/xlink">
    <!-- Generator: sketchtool 62 (101010) - https://sketch.com -->
    <title>A16C1311-CA68-4FA6-B775-87D929029B81</title>
    <desc>Created with sketchtool.</desc>
    <defs>
        <path d="M23.3393477,1.39417071 C22.3854673,2.01913811 21.3256622,2.46500878 20.2118899,2.70992366 C19.3162156,1.65695119 18.0356234,1 16.6162387,1 C13.8996068,1 11.6955818,3.42239186 11.6955818,6.4129077 C11.6955818,6.83668749 11.7399954,7.2475133 11.8214203,7.64538515 C7.72981726,7.41961601 4.10270645,5.26370576 1.67291233,1.9900532 C1.23107979,2.82920597 1.00170057,3.76387861 1.00485774,4.71223687 C1.00485774,6.58871154 1.87647467,8.24496877 3.19592875,9.21651631 C2.40727054,9.18656405 1.63974754,8.95324726 0.967846403,8.53920888 L0.967846403,8.60767985 C0.967846403,11.2299329 2.66666667,13.4191534 4.91695582,13.9169558 C4.19487879,14.1332029 3.4301166,14.1650149 2.6925746,14.0094842 C3.31991672,16.1579921 5.13717326,17.7254222 7.29308351,17.7698358 C5.60721721,19.2206801 3.48461716,20.0867453 1.17510988,20.0867453 C0.779088596,20.0867453 0.388619015,20.0608374 0,20.0108721 C2.20424016,21.5848983 4.84362267,22.4340797 7.55216285,22.4406662 C16.6069859,22.4406662 21.5591025,14.1926903 21.5591025,7.03839926 C21.5591025,6.80522785 21.5554013,6.57020588 21.5461485,6.33888503 C22.5084432,5.57645154 23.3430488,4.62340967 24,3.537127 C23.1104669,3.9722691 22.1560591,4.25977898 21.1741846,4.38838769 C22.1919963,3.71848254 22.9710849,2.65995836 23.3393477,1.39417071" id="path-1"></path>
    </defs>
    <g id="Asset-Artboard-Page" stroke="none" stroke-width="1" fill="none" fill-rule="evenodd">
        <g id="Icon/account-Icon/social/twitter">
            <mask id="mask-2" fill="white">
                <use xlink:href="#path-1"></use>
            </mask>
            <use id="Mask" fill="#151415" xlink:href="#path-1"></use>
        </g>
    </g>
</svg>