<svg id="icon-warrior" xmlns="http://www.w3.org/2000/svg" viewBox="0 0 138 32">
	<title>warrior</title>
	<path d="M65.919 11.576c-0.76 0.275-1.308 0.736-1.536 1.39l-0.842 2.379h3.281l1.471-4.127c-0.899-0-1.724 0.105-2.374 0.358zM65.919 10.355c0.527-0.041 1.094-0.063 1.705-0.063h5.032l-3.663 10.379h-4.044l1.537-4.378h-3.282l-1.539 4.378h-4.839c1.031-0.925 1.431-1.913 1.431-1.913l1.957-5.517c0.526-1.518 2.145-2.633 5.706-2.886zM98.927 20.671h4.103l3.662-10.379h-4.081zM112.59 19.050c-0.716 0.484-1.812 0.696-3.158 0.696l2.397-6.758c0.15-0.4 0.401-0.738 0.76-1.010 0.715-0.526 1.83-0.759 3.136-0.759l-2.42 6.969c-0.147 0.356-0.381 0.651-0.715 0.863zM112.59 20.501c2.21-0.316 4.295-1.073 4.737-2.274l2.774-7.936h-5.030c-0.924 0-1.747 0.043-2.481 0.128-3.032 0.354-4.442 1.406-4.925 2.82l-2.655 7.43h5.329c0.714 0 1.491-0.041 2.251-0.169zM94.020 11.218c1.748 0 1.519 0.485 1.349 0.97l-0.652 1.829c-0.127 0.399-0.548 0.676-1.411 0.759-0.15 0-0.337 0.022-0.526 0.022h-1.621l1.261-3.581 1.599 0.001zM88.674 10.292l-3.682 10.379h4.103l1.728-4.928h1.535c0.422 0 0.737 0.044 0.948 0.085 0.676 0.148 0.59 0.485 0.464 0.863l-1.389 3.979h5.094c-0.885-1.242-0.715-2.127 0.253-3.705 0.397-1.115-0.8-1.517-2.023-1.685 1.262-0.103 2.799-0.439 3.18-1.473l0.545-1.618c0.447-1.182 0.38-1.897-3.471-1.897h-7.284zM127.813 11.218c1.748 0 1.516 0.485 1.348 0.97l-0.653 1.829c-0.126 0.399-0.549 0.676-1.41 0.759-0.149 0-0.337 0.022-0.529 0.022h-1.617l1.262-3.581 1.598 0.001zM122.466 10.292l-3.683 10.379h4.102l1.728-4.928h1.538c0.417 0 0.732 0.044 0.946 0.085 0.672 0.148 0.586 0.485 0.463 0.863l-1.389 3.979h5.093c-0.884-1.242-0.716-2.127 0.252-3.705 0.401-1.115-0.798-1.517-2.020-1.685 1.26-0.103 2.8-0.439 3.179-1.473l0.546-1.618c0.445-1.182 0.379-1.897-3.471-1.897h-7.283zM80.021 11.218c1.745 0 1.517 0.485 1.348 0.97l-0.655 1.829c-0.124 0.399-0.546 0.676-1.409 0.759-0.148 0-0.337 0.022-0.528 0.022h-1.62l1.263-3.581 1.6 0.001zM74.676 10.292l-3.684 10.379h4.104l1.727-4.928h1.534c0.421 0 0.738 0.044 0.949 0.085 0.674 0.148 0.589 0.485 0.463 0.863l-1.389 3.979h5.094c-0.885-1.242-0.715-2.127 0.255-3.705 0.398-1.115-0.803-1.517-2.024-1.685 1.262-0.103 2.801-0.439 3.181-1.473l0.542-1.618c0.445-1.182 0.382-1.897-3.472-1.897l-7.28 0zM47.729 10.292l-2.715 7.684c-0.42 1.16-2.737 1.77-3.918 1.77l3.347-9.454h-4.103l-3.664 10.379h4.149c2.254 0 3.999-0.779 5.136-1.178l-0.506 1.178h3.391c3.346 0 6.84-0.65 7.685-2.947 1.136-2.924 2.063-6.59 3.388-7.431h-4.863l-2.697 7.684c-0.399 1.16-2.756 1.77-3.912 1.77l3.326-9.454-4.043-0zM133.557 20.917h-0.026c-0.697 0-1.149-0.435-1.149-1.086v-0.127c0-0.65 0.452-1.085 1.149-1.085h0.026c0.697 0 1.149 0.435 1.149 1.085v0.128c-0 0.651-0.452 1.086-1.149 1.086zM134.515 19.703c0-0.536-0.375-0.893-0.957-0.893h-0.026c-0.582 0-0.956 0.357-0.956 0.893v0.128c0 0.538 0.374 0.893 0.956 0.893h0.026c0.582 0 0.957-0.356 0.957-0.893v-0.128zM133.825 19.913c0 0.008 0 0.014 0.007 0.019l0.159 0.32c0.007 0.013 0.014 0.025 0.014 0.039 0 0.032-0.025 0.050-0.071 0.050h-0.102c-0.031-0.005-0.053-0.026-0.057-0.038l-0.148-0.338c-0.007-0.014-0.024-0.026-0.056-0.038h-0.162c-0.045 0-0.064 0.018-0.064 0.063v0.287c0 0.045-0.018 0.064-0.064 0.064h-0.070c-0.045 0-0.062-0.018-0.062-0.064v-1.073c0-0.044 0.017-0.064 0.062-0.064h0.402c0.243 0 0.402 0.16 0.402 0.402v0.026c0.001 0.179-0.192 0.269-0.192 0.343zM133.812 19.523c0-0.114-0.082-0.204-0.197-0.204h-0.205c-0.045 0-0.064 0.020-0.064 0.065v0.301c0 0.043 0.019 0.064 0.064 0.064h0.205c0.115 0 0.197-0.091 0.197-0.206v-0.020zM15.595 20.231c0.183 0.135 2.842 2.243 3.805 0.226 0.968-2.001 0.556-8.165 0.485-9.358-0.072-1.179 6.431-0.2 6.431-0.2-3.038 3.45-4.33 6.62-4.814 13.152-3.918-0.156-5.618-3.393-5.907-3.82zM12.175 17.427c-0.799-0.757-1.435-1.674-1.894-2.576-0.919-1.832-1.108-3.633-0.4-4.093 0 0-4.195-0.309-4.254 0.99 0 0-0.004 0.059 0 0.104 0.082 0.782 2.747 2.851 4.655 4.241 1.064 0.769 1.894 1.334 1.894 1.334zM12.216 10.912c0.17 1.179 1.234 6.918 0.267 8.933-0.454 0.953-1.391 0.839-2.257 0.455-0.952-0.424-1.82-1.178-1.82-1.178s0.67 1.136 1.82 2.229c1.021 0.98 2.429 1.917 4.076 1.988 0.17-2.2 2.369-11.079 4.402-12.939-0.276-0.056-6.704-0.935-6.489 0.511zM0.483 15.509c0-8.591 6.962-15.553 15.552-15.553 8.589 0 15.551 6.963 15.551 15.553s-6.962 15.551-15.551 15.551c-8.591 0.001-15.552-6.961-15.552-15.551zM3.074 15.509c0 3.583 1.446 6.816 3.796 9.164s5.581 3.795 9.165 3.795c3.584 0 6.814-1.446 9.164-3.795 2.346-2.348 3.796-5.581 3.796-9.164s-1.45-6.816-3.796-9.164c-2.35-2.348-5.581-3.797-9.164-3.797s-6.816 1.449-9.165 3.797c-2.349 2.348-3.796 5.58-3.796 9.164z"></path>
</svg>
