<?xml version="1.0" encoding="UTF-8"?>
<svg width="24px" height="24px" viewBox="0 0 24 24" version="1.1" xmlns="http://www.w3.org/2000/svg" xmlns:xlink="http://www.w3.org/1999/xlink">
    <!-- Generator: sketchtool 62 (101010) - https://sketch.com -->
    <title>1235A5FF-EDC1-4F35-A760-11FF45AFE6FC</title>
    <desc>Created with sketchtool.</desc>
    <defs>
        <path d="M23.7585549,6.64686444 C23.7585549,6.64686444 23.5241592,4.76288735 22.8051109,3.93280952 C21.8939639,2.84718755 20.8717873,2.84013805 20.402996,2.77669261 C17.0439125,2.5 12.0070495,2.5 12.0070495,2.5 L11.9964753,2.5 C11.9964753,2.5 6.95608753,2.5 3.59876634,2.77669261 C3.12997503,2.83837568 2.10956088,2.84542517 1.19488912,3.93280952 C0.475840799,4.76288735 0.239682773,6.64686444 0.239682773,6.64686444 C0.239682773,6.64686444 0,8.85864297 0,11.0721839 L0,13.1447349 C0,15.3582758 0.239682773,17.5700543 0.239682773,17.5700543 C0.239682773,17.5700543 0.475840799,19.4540314 1.19488912,20.2823469 C2.10956088,21.3714936 3.30797474,21.3362461 3.84197386,21.4508004 C5.76119841,21.6587605 12,21.727493 12,21.727493 C12,21.727493 17.0439125,21.7151564 20.402996,21.4419885 C20.8717873,21.3767807 21.8939639,21.373256 22.8051109,20.2823469 C23.5241592,19.4540314 23.7585549,17.5700543 23.7585549,17.5700543 C23.7585549,17.5700543 24,15.3600382 24,13.1447349 L24,11.0721839 C24,8.85864297 23.7585549,6.64686444 23.7585549,6.64686444 L23.7585549,6.64686444 Z M9.52386547,15.6578793 L9.5221031,7.97745631 L16.0058746,11.8335292 L9.52386547,15.6578793 Z" id="path-1"></path>
    </defs>
    <g id="Asset-Artboard-Page" stroke="none" stroke-width="1" fill="none" fill-rule="evenodd">
        <g id="Icon/account-Icon/social/youtube">
            <mask id="mask-2" fill="white">
                <use xlink:href="#path-1"></use>
            </mask>
            <use id="Mask" fill="#151415" xlink:href="#path-1"></use>
        </g>
    </g>
</svg>